%TF.GenerationSoftware,KiCad,Pcbnew,(5.1.8)-1*%
%TF.CreationDate,2021-11-13T21:13:11+08:00*%
%TF.ProjectId,pcm5102a,70636d35-3130-4326-912e-6b696361645f,rev?*%
%TF.SameCoordinates,Original*%
%TF.FileFunction,Legend,Top*%
%TF.FilePolarity,Positive*%
%FSLAX46Y46*%
G04 Gerber Fmt 4.6, Leading zero omitted, Abs format (unit mm)*
G04 Created by KiCad (PCBNEW (5.1.8)-1) date 2021-11-13 21:13:11*
%MOMM*%
%LPD*%
G01*
G04 APERTURE LIST*
%ADD10C,0.150000*%
%ADD11C,0.120000*%
G04 APERTURE END LIST*
D10*
X131409523Y-82352380D02*
X130933333Y-82352380D01*
X130933333Y-81352380D01*
X128809523Y-82452380D02*
X128476190Y-81976190D01*
X128238095Y-82452380D02*
X128238095Y-81452380D01*
X128619047Y-81452380D01*
X128714285Y-81500000D01*
X128761904Y-81547619D01*
X128809523Y-81642857D01*
X128809523Y-81785714D01*
X128761904Y-81880952D01*
X128714285Y-81928571D01*
X128619047Y-81976190D01*
X128238095Y-81976190D01*
X126161904Y-81500000D02*
X126066666Y-81452380D01*
X125923809Y-81452380D01*
X125780952Y-81500000D01*
X125685714Y-81595238D01*
X125638095Y-81690476D01*
X125590476Y-81880952D01*
X125590476Y-82023809D01*
X125638095Y-82214285D01*
X125685714Y-82309523D01*
X125780952Y-82404761D01*
X125923809Y-82452380D01*
X126019047Y-82452380D01*
X126161904Y-82404761D01*
X126209523Y-82357142D01*
X126209523Y-82023809D01*
X126019047Y-82023809D01*
D11*
%TO.C,J3*%
X124670000Y-80830000D02*
X124670000Y-79500000D01*
X126000000Y-80830000D02*
X124670000Y-80830000D01*
X127270000Y-80830000D02*
X127270000Y-78170000D01*
X127270000Y-78170000D02*
X132410000Y-78170000D01*
X127270000Y-80830000D02*
X132410000Y-80830000D01*
X132410000Y-80830000D02*
X132410000Y-78170000D01*
%TO.C,J2*%
X117070000Y-102530000D02*
X117070000Y-101200000D01*
X118400000Y-102530000D02*
X117070000Y-102530000D01*
X119670000Y-102530000D02*
X119670000Y-99870000D01*
X119670000Y-99870000D02*
X132430000Y-99870000D01*
X119670000Y-102530000D02*
X132430000Y-102530000D01*
X132430000Y-102530000D02*
X132430000Y-99870000D01*
%TO.C,R7*%
X124980000Y-98053641D02*
X124980000Y-97746359D01*
X124220000Y-98053641D02*
X124220000Y-97746359D01*
%TO.C,R6*%
X123535000Y-94927064D02*
X123535000Y-94472936D01*
X122065000Y-94927064D02*
X122065000Y-94472936D01*
%TO.C,J1*%
X122000000Y-89450000D02*
X123400000Y-89450000D01*
X122000000Y-91000000D02*
X123400000Y-91000000D01*
X115800000Y-90550000D02*
X115800000Y-80025000D01*
X122000000Y-91000000D02*
X122000000Y-92125000D01*
X122000000Y-87050000D02*
X122000000Y-89450000D01*
X122000000Y-84050000D02*
X122000000Y-85400000D01*
X122000000Y-80025000D02*
X122000000Y-82400000D01*
X115800000Y-92125000D02*
X122000000Y-92125000D01*
X122000000Y-80025000D02*
X121400000Y-80025000D01*
X116400000Y-80025000D02*
X115800000Y-80025000D01*
X121400000Y-78025000D02*
X116400000Y-78025000D01*
X121400000Y-80025000D02*
X121400000Y-78025000D01*
X116400000Y-80025000D02*
X116400000Y-78025000D01*
%TO.C,U1*%
X124725000Y-92620000D02*
X124725000Y-94820000D01*
X124725000Y-92620000D02*
X124725000Y-90420000D01*
X131495000Y-92620000D02*
X131495000Y-94820000D01*
X131495000Y-92620000D02*
X131495000Y-89020000D01*
%TO.C,R5*%
X125420000Y-98053641D02*
X125420000Y-97746359D01*
X126180000Y-98053641D02*
X126180000Y-97746359D01*
%TO.C,R4*%
X126520000Y-98053641D02*
X126520000Y-97746359D01*
X127280000Y-98053641D02*
X127280000Y-97746359D01*
%TO.C,R3*%
X126520000Y-85853641D02*
X126520000Y-85546359D01*
X127280000Y-85853641D02*
X127280000Y-85546359D01*
%TO.C,R2*%
X127620000Y-98053641D02*
X127620000Y-97746359D01*
X128380000Y-98053641D02*
X128380000Y-97746359D01*
%TO.C,R1*%
X127620000Y-85853641D02*
X127620000Y-85546359D01*
X128380000Y-85853641D02*
X128380000Y-85546359D01*
%TO.C,C9*%
X124290000Y-87737836D02*
X124290000Y-87522164D01*
X125010000Y-87737836D02*
X125010000Y-87522164D01*
%TO.C,C8*%
X125340000Y-87757836D02*
X125340000Y-87542164D01*
X126060000Y-87757836D02*
X126060000Y-87542164D01*
%TO.C,C7*%
X126507836Y-84410000D02*
X126292164Y-84410000D01*
X126507836Y-83690000D02*
X126292164Y-83690000D01*
%TO.C,C6*%
X129612164Y-86340000D02*
X129827836Y-86340000D01*
X129612164Y-87060000D02*
X129827836Y-87060000D01*
%TO.C,C5*%
X128607836Y-84410000D02*
X128392164Y-84410000D01*
X128607836Y-83690000D02*
X128392164Y-83690000D01*
%TO.C,C4*%
X129592164Y-87540000D02*
X129807836Y-87540000D01*
X129592164Y-88260000D02*
X129807836Y-88260000D01*
%TO.C,C3*%
X129440000Y-98007836D02*
X129440000Y-97792164D01*
X130160000Y-98007836D02*
X130160000Y-97792164D01*
%TO.C,C2*%
X130740000Y-98007836D02*
X130740000Y-97792164D01*
X131460000Y-98007836D02*
X131460000Y-97792164D01*
%TO.C,C1*%
X130840000Y-87607836D02*
X130840000Y-87392164D01*
X131560000Y-87607836D02*
X131560000Y-87392164D01*
%TD*%
M02*
