%TF.GenerationSoftware,KiCad,Pcbnew,(5.1.8)-1*%
%TF.CreationDate,2021-11-13T21:13:11+08:00*%
%TF.ProjectId,pcm5102a,70636d35-3130-4326-912e-6b696361645f,rev?*%
%TF.SameCoordinates,Original*%
%TF.FileFunction,Legend,Bot*%
%TF.FilePolarity,Positive*%
%FSLAX46Y46*%
G04 Gerber Fmt 4.6, Leading zero omitted, Abs format (unit mm)*
G04 Created by KiCad (PCBNEW (5.1.8)-1) date 2021-11-13 21:13:11*
%MOMM*%
%LPD*%
G01*
G04 APERTURE LIST*
%ADD10C,0.150000*%
G04 APERTURE END LIST*
D10*
X126552380Y-96609523D02*
X126552380Y-96133333D01*
X125552380Y-96133333D01*
X126552380Y-97514285D02*
X126076190Y-97180952D01*
X126552380Y-96942857D02*
X125552380Y-96942857D01*
X125552380Y-97323809D01*
X125600000Y-97419047D01*
X125647619Y-97466666D01*
X125742857Y-97514285D01*
X125885714Y-97514285D01*
X125980952Y-97466666D01*
X126028571Y-97419047D01*
X126076190Y-97323809D01*
X126076190Y-96942857D01*
X126457142Y-98514285D02*
X126504761Y-98466666D01*
X126552380Y-98323809D01*
X126552380Y-98228571D01*
X126504761Y-98085714D01*
X126409523Y-97990476D01*
X126314285Y-97942857D01*
X126123809Y-97895238D01*
X125980952Y-97895238D01*
X125790476Y-97942857D01*
X125695238Y-97990476D01*
X125600000Y-98085714D01*
X125552380Y-98228571D01*
X125552380Y-98323809D01*
X125600000Y-98466666D01*
X125647619Y-98514285D01*
X126552380Y-98942857D02*
X125552380Y-98942857D01*
X126552380Y-99514285D02*
X125980952Y-99085714D01*
X125552380Y-99514285D02*
X126123809Y-98942857D01*
X118852380Y-95909523D02*
X117852380Y-95909523D01*
X118566666Y-96242857D01*
X117852380Y-96576190D01*
X118852380Y-96576190D01*
X117852380Y-97052380D02*
X118661904Y-97052380D01*
X118757142Y-97100000D01*
X118804761Y-97147619D01*
X118852380Y-97242857D01*
X118852380Y-97433333D01*
X118804761Y-97528571D01*
X118757142Y-97576190D01*
X118661904Y-97623809D01*
X117852380Y-97623809D01*
X117852380Y-97957142D02*
X117852380Y-98528571D01*
X118852380Y-98242857D02*
X117852380Y-98242857D01*
X118328571Y-98861904D02*
X118328571Y-99195238D01*
X118852380Y-99338095D02*
X118852380Y-98861904D01*
X117852380Y-98861904D01*
X117852380Y-99338095D01*
X123952380Y-97376190D02*
X122952380Y-97376190D01*
X122952380Y-97614285D01*
X123000000Y-97757142D01*
X123095238Y-97852380D01*
X123190476Y-97900000D01*
X123380952Y-97947619D01*
X123523809Y-97947619D01*
X123714285Y-97900000D01*
X123809523Y-97852380D01*
X123904761Y-97757142D01*
X123952380Y-97614285D01*
X123952380Y-97376190D01*
X123952380Y-98376190D02*
X122952380Y-98376190D01*
X123952380Y-98852380D02*
X122952380Y-98852380D01*
X123952380Y-99423809D01*
X122952380Y-99423809D01*
X120928571Y-97071428D02*
X120976190Y-97214285D01*
X121023809Y-97261904D01*
X121119047Y-97309523D01*
X121261904Y-97309523D01*
X121357142Y-97261904D01*
X121404761Y-97214285D01*
X121452380Y-97119047D01*
X121452380Y-96738095D01*
X120452380Y-96738095D01*
X120452380Y-97071428D01*
X120500000Y-97166666D01*
X120547619Y-97214285D01*
X120642857Y-97261904D01*
X120738095Y-97261904D01*
X120833333Y-97214285D01*
X120880952Y-97166666D01*
X120928571Y-97071428D01*
X120928571Y-96738095D01*
X121357142Y-98309523D02*
X121404761Y-98261904D01*
X121452380Y-98119047D01*
X121452380Y-98023809D01*
X121404761Y-97880952D01*
X121309523Y-97785714D01*
X121214285Y-97738095D01*
X121023809Y-97690476D01*
X120880952Y-97690476D01*
X120690476Y-97738095D01*
X120595238Y-97785714D01*
X120500000Y-97880952D01*
X120452380Y-98023809D01*
X120452380Y-98119047D01*
X120500000Y-98261904D01*
X120547619Y-98309523D01*
X121452380Y-98738095D02*
X120452380Y-98738095D01*
X121452380Y-99309523D02*
X120880952Y-98880952D01*
X120452380Y-99309523D02*
X121023809Y-98738095D01*
X128400000Y-97338095D02*
X128352380Y-97242857D01*
X128352380Y-97100000D01*
X128400000Y-96957142D01*
X128495238Y-96861904D01*
X128590476Y-96814285D01*
X128780952Y-96766666D01*
X128923809Y-96766666D01*
X129114285Y-96814285D01*
X129209523Y-96861904D01*
X129304761Y-96957142D01*
X129352380Y-97100000D01*
X129352380Y-97195238D01*
X129304761Y-97338095D01*
X129257142Y-97385714D01*
X128923809Y-97385714D01*
X128923809Y-97195238D01*
X129352380Y-97814285D02*
X128352380Y-97814285D01*
X129352380Y-98385714D01*
X128352380Y-98385714D01*
X129352380Y-98861904D02*
X128352380Y-98861904D01*
X128352380Y-99100000D01*
X128400000Y-99242857D01*
X128495238Y-99338095D01*
X128590476Y-99385714D01*
X128780952Y-99433333D01*
X128923809Y-99433333D01*
X129114285Y-99385714D01*
X129209523Y-99338095D01*
X129304761Y-99242857D01*
X129352380Y-99100000D01*
X129352380Y-98861904D01*
X130752380Y-96423809D02*
X130752380Y-97042857D01*
X131133333Y-96709523D01*
X131133333Y-96852380D01*
X131180952Y-96947619D01*
X131228571Y-96995238D01*
X131323809Y-97042857D01*
X131561904Y-97042857D01*
X131657142Y-96995238D01*
X131704761Y-96947619D01*
X131752380Y-96852380D01*
X131752380Y-96566666D01*
X131704761Y-96471428D01*
X131657142Y-96423809D01*
X131657142Y-97471428D02*
X131704761Y-97519047D01*
X131752380Y-97471428D01*
X131704761Y-97423809D01*
X131657142Y-97471428D01*
X131752380Y-97471428D01*
X130752380Y-97852380D02*
X130752380Y-98471428D01*
X131133333Y-98138095D01*
X131133333Y-98280952D01*
X131180952Y-98376190D01*
X131228571Y-98423809D01*
X131323809Y-98471428D01*
X131561904Y-98471428D01*
X131657142Y-98423809D01*
X131704761Y-98376190D01*
X131752380Y-98280952D01*
X131752380Y-97995238D01*
X131704761Y-97900000D01*
X131657142Y-97852380D01*
X130752380Y-98757142D02*
X131752380Y-99090476D01*
X130752380Y-99423809D01*
M02*
