%TF.GenerationSoftware,KiCad,Pcbnew,(5.1.8)-1*%
%TF.CreationDate,2021-11-13T21:13:11+08:00*%
%TF.ProjectId,pcm5102a,70636d35-3130-4326-912e-6b696361645f,rev?*%
%TF.SameCoordinates,Original*%
%TF.FileFunction,Soldermask,Top*%
%TF.FilePolarity,Negative*%
%FSLAX46Y46*%
G04 Gerber Fmt 4.6, Leading zero omitted, Abs format (unit mm)*
G04 Created by KiCad (PCBNEW (5.1.8)-1) date 2021-11-13 21:13:11*
%MOMM*%
%LPD*%
G01*
G04 APERTURE LIST*
%ADD10O,1.700000X1.700000*%
%ADD11R,1.700000X1.700000*%
%ADD12C,1.500000*%
%ADD13R,2.500000X1.200000*%
G04 APERTURE END LIST*
D10*
%TO.C,J3*%
X131080000Y-79500000D03*
X128540000Y-79500000D03*
D11*
X126000000Y-79500000D03*
%TD*%
D10*
%TO.C,J2*%
X131100000Y-101200000D03*
X128560000Y-101200000D03*
X126020000Y-101200000D03*
X123480000Y-101200000D03*
X120940000Y-101200000D03*
D11*
X118400000Y-101200000D03*
%TD*%
%TO.C,R7*%
G36*
G01*
X124785000Y-97660000D02*
X124415000Y-97660000D01*
G75*
G02*
X124280000Y-97525000I0J135000D01*
G01*
X124280000Y-97255000D01*
G75*
G02*
X124415000Y-97120000I135000J0D01*
G01*
X124785000Y-97120000D01*
G75*
G02*
X124920000Y-97255000I0J-135000D01*
G01*
X124920000Y-97525000D01*
G75*
G02*
X124785000Y-97660000I-135000J0D01*
G01*
G37*
G36*
G01*
X124785000Y-98680000D02*
X124415000Y-98680000D01*
G75*
G02*
X124280000Y-98545000I0J135000D01*
G01*
X124280000Y-98275000D01*
G75*
G02*
X124415000Y-98140000I135000J0D01*
G01*
X124785000Y-98140000D01*
G75*
G02*
X124920000Y-98275000I0J-135000D01*
G01*
X124920000Y-98545000D01*
G75*
G02*
X124785000Y-98680000I-135000J0D01*
G01*
G37*
%TD*%
%TO.C,R6*%
G36*
G01*
X123250002Y-94300000D02*
X122349998Y-94300000D01*
G75*
G02*
X122100000Y-94050002I0J249998D01*
G01*
X122100000Y-93524998D01*
G75*
G02*
X122349998Y-93275000I249998J0D01*
G01*
X123250002Y-93275000D01*
G75*
G02*
X123500000Y-93524998I0J-249998D01*
G01*
X123500000Y-94050002D01*
G75*
G02*
X123250002Y-94300000I-249998J0D01*
G01*
G37*
G36*
G01*
X123250002Y-96125000D02*
X122349998Y-96125000D01*
G75*
G02*
X122100000Y-95875002I0J249998D01*
G01*
X122100000Y-95349998D01*
G75*
G02*
X122349998Y-95100000I249998J0D01*
G01*
X123250002Y-95100000D01*
G75*
G02*
X123500000Y-95349998I0J-249998D01*
G01*
X123500000Y-95875002D01*
G75*
G02*
X123250002Y-96125000I-249998J0D01*
G01*
G37*
%TD*%
D12*
%TO.C,J1*%
X118900000Y-88625000D03*
X118900000Y-81625000D03*
D13*
X122150000Y-83225000D03*
X122150000Y-86225000D03*
X122150000Y-90225000D03*
X115650000Y-91325000D03*
%TD*%
%TO.C,U1*%
G36*
G01*
X130935000Y-94745000D02*
X131135000Y-94745000D01*
G75*
G02*
X131235000Y-94845000I0J-100000D01*
G01*
X131235000Y-96120000D01*
G75*
G02*
X131135000Y-96220000I-100000J0D01*
G01*
X130935000Y-96220000D01*
G75*
G02*
X130835000Y-96120000I0J100000D01*
G01*
X130835000Y-94845000D01*
G75*
G02*
X130935000Y-94745000I100000J0D01*
G01*
G37*
G36*
G01*
X130285000Y-94745000D02*
X130485000Y-94745000D01*
G75*
G02*
X130585000Y-94845000I0J-100000D01*
G01*
X130585000Y-96120000D01*
G75*
G02*
X130485000Y-96220000I-100000J0D01*
G01*
X130285000Y-96220000D01*
G75*
G02*
X130185000Y-96120000I0J100000D01*
G01*
X130185000Y-94845000D01*
G75*
G02*
X130285000Y-94745000I100000J0D01*
G01*
G37*
G36*
G01*
X129635000Y-94745000D02*
X129835000Y-94745000D01*
G75*
G02*
X129935000Y-94845000I0J-100000D01*
G01*
X129935000Y-96120000D01*
G75*
G02*
X129835000Y-96220000I-100000J0D01*
G01*
X129635000Y-96220000D01*
G75*
G02*
X129535000Y-96120000I0J100000D01*
G01*
X129535000Y-94845000D01*
G75*
G02*
X129635000Y-94745000I100000J0D01*
G01*
G37*
G36*
G01*
X128985000Y-94745000D02*
X129185000Y-94745000D01*
G75*
G02*
X129285000Y-94845000I0J-100000D01*
G01*
X129285000Y-96120000D01*
G75*
G02*
X129185000Y-96220000I-100000J0D01*
G01*
X128985000Y-96220000D01*
G75*
G02*
X128885000Y-96120000I0J100000D01*
G01*
X128885000Y-94845000D01*
G75*
G02*
X128985000Y-94745000I100000J0D01*
G01*
G37*
G36*
G01*
X128335000Y-94745000D02*
X128535000Y-94745000D01*
G75*
G02*
X128635000Y-94845000I0J-100000D01*
G01*
X128635000Y-96120000D01*
G75*
G02*
X128535000Y-96220000I-100000J0D01*
G01*
X128335000Y-96220000D01*
G75*
G02*
X128235000Y-96120000I0J100000D01*
G01*
X128235000Y-94845000D01*
G75*
G02*
X128335000Y-94745000I100000J0D01*
G01*
G37*
G36*
G01*
X127685000Y-94745000D02*
X127885000Y-94745000D01*
G75*
G02*
X127985000Y-94845000I0J-100000D01*
G01*
X127985000Y-96120000D01*
G75*
G02*
X127885000Y-96220000I-100000J0D01*
G01*
X127685000Y-96220000D01*
G75*
G02*
X127585000Y-96120000I0J100000D01*
G01*
X127585000Y-94845000D01*
G75*
G02*
X127685000Y-94745000I100000J0D01*
G01*
G37*
G36*
G01*
X127035000Y-94745000D02*
X127235000Y-94745000D01*
G75*
G02*
X127335000Y-94845000I0J-100000D01*
G01*
X127335000Y-96120000D01*
G75*
G02*
X127235000Y-96220000I-100000J0D01*
G01*
X127035000Y-96220000D01*
G75*
G02*
X126935000Y-96120000I0J100000D01*
G01*
X126935000Y-94845000D01*
G75*
G02*
X127035000Y-94745000I100000J0D01*
G01*
G37*
G36*
G01*
X126385000Y-94745000D02*
X126585000Y-94745000D01*
G75*
G02*
X126685000Y-94845000I0J-100000D01*
G01*
X126685000Y-96120000D01*
G75*
G02*
X126585000Y-96220000I-100000J0D01*
G01*
X126385000Y-96220000D01*
G75*
G02*
X126285000Y-96120000I0J100000D01*
G01*
X126285000Y-94845000D01*
G75*
G02*
X126385000Y-94745000I100000J0D01*
G01*
G37*
G36*
G01*
X125735000Y-94745000D02*
X125935000Y-94745000D01*
G75*
G02*
X126035000Y-94845000I0J-100000D01*
G01*
X126035000Y-96120000D01*
G75*
G02*
X125935000Y-96220000I-100000J0D01*
G01*
X125735000Y-96220000D01*
G75*
G02*
X125635000Y-96120000I0J100000D01*
G01*
X125635000Y-94845000D01*
G75*
G02*
X125735000Y-94745000I100000J0D01*
G01*
G37*
G36*
G01*
X125085000Y-94745000D02*
X125285000Y-94745000D01*
G75*
G02*
X125385000Y-94845000I0J-100000D01*
G01*
X125385000Y-96120000D01*
G75*
G02*
X125285000Y-96220000I-100000J0D01*
G01*
X125085000Y-96220000D01*
G75*
G02*
X124985000Y-96120000I0J100000D01*
G01*
X124985000Y-94845000D01*
G75*
G02*
X125085000Y-94745000I100000J0D01*
G01*
G37*
G36*
G01*
X125085000Y-89020000D02*
X125285000Y-89020000D01*
G75*
G02*
X125385000Y-89120000I0J-100000D01*
G01*
X125385000Y-90395000D01*
G75*
G02*
X125285000Y-90495000I-100000J0D01*
G01*
X125085000Y-90495000D01*
G75*
G02*
X124985000Y-90395000I0J100000D01*
G01*
X124985000Y-89120000D01*
G75*
G02*
X125085000Y-89020000I100000J0D01*
G01*
G37*
G36*
G01*
X125735000Y-89020000D02*
X125935000Y-89020000D01*
G75*
G02*
X126035000Y-89120000I0J-100000D01*
G01*
X126035000Y-90395000D01*
G75*
G02*
X125935000Y-90495000I-100000J0D01*
G01*
X125735000Y-90495000D01*
G75*
G02*
X125635000Y-90395000I0J100000D01*
G01*
X125635000Y-89120000D01*
G75*
G02*
X125735000Y-89020000I100000J0D01*
G01*
G37*
G36*
G01*
X126385000Y-89020000D02*
X126585000Y-89020000D01*
G75*
G02*
X126685000Y-89120000I0J-100000D01*
G01*
X126685000Y-90395000D01*
G75*
G02*
X126585000Y-90495000I-100000J0D01*
G01*
X126385000Y-90495000D01*
G75*
G02*
X126285000Y-90395000I0J100000D01*
G01*
X126285000Y-89120000D01*
G75*
G02*
X126385000Y-89020000I100000J0D01*
G01*
G37*
G36*
G01*
X127035000Y-89020000D02*
X127235000Y-89020000D01*
G75*
G02*
X127335000Y-89120000I0J-100000D01*
G01*
X127335000Y-90395000D01*
G75*
G02*
X127235000Y-90495000I-100000J0D01*
G01*
X127035000Y-90495000D01*
G75*
G02*
X126935000Y-90395000I0J100000D01*
G01*
X126935000Y-89120000D01*
G75*
G02*
X127035000Y-89020000I100000J0D01*
G01*
G37*
G36*
G01*
X127685000Y-89020000D02*
X127885000Y-89020000D01*
G75*
G02*
X127985000Y-89120000I0J-100000D01*
G01*
X127985000Y-90395000D01*
G75*
G02*
X127885000Y-90495000I-100000J0D01*
G01*
X127685000Y-90495000D01*
G75*
G02*
X127585000Y-90395000I0J100000D01*
G01*
X127585000Y-89120000D01*
G75*
G02*
X127685000Y-89020000I100000J0D01*
G01*
G37*
G36*
G01*
X128335000Y-89020000D02*
X128535000Y-89020000D01*
G75*
G02*
X128635000Y-89120000I0J-100000D01*
G01*
X128635000Y-90395000D01*
G75*
G02*
X128535000Y-90495000I-100000J0D01*
G01*
X128335000Y-90495000D01*
G75*
G02*
X128235000Y-90395000I0J100000D01*
G01*
X128235000Y-89120000D01*
G75*
G02*
X128335000Y-89020000I100000J0D01*
G01*
G37*
G36*
G01*
X128985000Y-89020000D02*
X129185000Y-89020000D01*
G75*
G02*
X129285000Y-89120000I0J-100000D01*
G01*
X129285000Y-90395000D01*
G75*
G02*
X129185000Y-90495000I-100000J0D01*
G01*
X128985000Y-90495000D01*
G75*
G02*
X128885000Y-90395000I0J100000D01*
G01*
X128885000Y-89120000D01*
G75*
G02*
X128985000Y-89020000I100000J0D01*
G01*
G37*
G36*
G01*
X129635000Y-89020000D02*
X129835000Y-89020000D01*
G75*
G02*
X129935000Y-89120000I0J-100000D01*
G01*
X129935000Y-90395000D01*
G75*
G02*
X129835000Y-90495000I-100000J0D01*
G01*
X129635000Y-90495000D01*
G75*
G02*
X129535000Y-90395000I0J100000D01*
G01*
X129535000Y-89120000D01*
G75*
G02*
X129635000Y-89020000I100000J0D01*
G01*
G37*
G36*
G01*
X130285000Y-89020000D02*
X130485000Y-89020000D01*
G75*
G02*
X130585000Y-89120000I0J-100000D01*
G01*
X130585000Y-90395000D01*
G75*
G02*
X130485000Y-90495000I-100000J0D01*
G01*
X130285000Y-90495000D01*
G75*
G02*
X130185000Y-90395000I0J100000D01*
G01*
X130185000Y-89120000D01*
G75*
G02*
X130285000Y-89020000I100000J0D01*
G01*
G37*
G36*
G01*
X130935000Y-89020000D02*
X131135000Y-89020000D01*
G75*
G02*
X131235000Y-89120000I0J-100000D01*
G01*
X131235000Y-90395000D01*
G75*
G02*
X131135000Y-90495000I-100000J0D01*
G01*
X130935000Y-90495000D01*
G75*
G02*
X130835000Y-90395000I0J100000D01*
G01*
X130835000Y-89120000D01*
G75*
G02*
X130935000Y-89020000I100000J0D01*
G01*
G37*
%TD*%
%TO.C,R5*%
G36*
G01*
X125985000Y-97660000D02*
X125615000Y-97660000D01*
G75*
G02*
X125480000Y-97525000I0J135000D01*
G01*
X125480000Y-97255000D01*
G75*
G02*
X125615000Y-97120000I135000J0D01*
G01*
X125985000Y-97120000D01*
G75*
G02*
X126120000Y-97255000I0J-135000D01*
G01*
X126120000Y-97525000D01*
G75*
G02*
X125985000Y-97660000I-135000J0D01*
G01*
G37*
G36*
G01*
X125985000Y-98680000D02*
X125615000Y-98680000D01*
G75*
G02*
X125480000Y-98545000I0J135000D01*
G01*
X125480000Y-98275000D01*
G75*
G02*
X125615000Y-98140000I135000J0D01*
G01*
X125985000Y-98140000D01*
G75*
G02*
X126120000Y-98275000I0J-135000D01*
G01*
X126120000Y-98545000D01*
G75*
G02*
X125985000Y-98680000I-135000J0D01*
G01*
G37*
%TD*%
%TO.C,R4*%
G36*
G01*
X127085000Y-97660000D02*
X126715000Y-97660000D01*
G75*
G02*
X126580000Y-97525000I0J135000D01*
G01*
X126580000Y-97255000D01*
G75*
G02*
X126715000Y-97120000I135000J0D01*
G01*
X127085000Y-97120000D01*
G75*
G02*
X127220000Y-97255000I0J-135000D01*
G01*
X127220000Y-97525000D01*
G75*
G02*
X127085000Y-97660000I-135000J0D01*
G01*
G37*
G36*
G01*
X127085000Y-98680000D02*
X126715000Y-98680000D01*
G75*
G02*
X126580000Y-98545000I0J135000D01*
G01*
X126580000Y-98275000D01*
G75*
G02*
X126715000Y-98140000I135000J0D01*
G01*
X127085000Y-98140000D01*
G75*
G02*
X127220000Y-98275000I0J-135000D01*
G01*
X127220000Y-98545000D01*
G75*
G02*
X127085000Y-98680000I-135000J0D01*
G01*
G37*
%TD*%
%TO.C,R3*%
G36*
G01*
X127085000Y-85460000D02*
X126715000Y-85460000D01*
G75*
G02*
X126580000Y-85325000I0J135000D01*
G01*
X126580000Y-85055000D01*
G75*
G02*
X126715000Y-84920000I135000J0D01*
G01*
X127085000Y-84920000D01*
G75*
G02*
X127220000Y-85055000I0J-135000D01*
G01*
X127220000Y-85325000D01*
G75*
G02*
X127085000Y-85460000I-135000J0D01*
G01*
G37*
G36*
G01*
X127085000Y-86480000D02*
X126715000Y-86480000D01*
G75*
G02*
X126580000Y-86345000I0J135000D01*
G01*
X126580000Y-86075000D01*
G75*
G02*
X126715000Y-85940000I135000J0D01*
G01*
X127085000Y-85940000D01*
G75*
G02*
X127220000Y-86075000I0J-135000D01*
G01*
X127220000Y-86345000D01*
G75*
G02*
X127085000Y-86480000I-135000J0D01*
G01*
G37*
%TD*%
%TO.C,R2*%
G36*
G01*
X128185000Y-97660000D02*
X127815000Y-97660000D01*
G75*
G02*
X127680000Y-97525000I0J135000D01*
G01*
X127680000Y-97255000D01*
G75*
G02*
X127815000Y-97120000I135000J0D01*
G01*
X128185000Y-97120000D01*
G75*
G02*
X128320000Y-97255000I0J-135000D01*
G01*
X128320000Y-97525000D01*
G75*
G02*
X128185000Y-97660000I-135000J0D01*
G01*
G37*
G36*
G01*
X128185000Y-98680000D02*
X127815000Y-98680000D01*
G75*
G02*
X127680000Y-98545000I0J135000D01*
G01*
X127680000Y-98275000D01*
G75*
G02*
X127815000Y-98140000I135000J0D01*
G01*
X128185000Y-98140000D01*
G75*
G02*
X128320000Y-98275000I0J-135000D01*
G01*
X128320000Y-98545000D01*
G75*
G02*
X128185000Y-98680000I-135000J0D01*
G01*
G37*
%TD*%
%TO.C,R1*%
G36*
G01*
X128185000Y-85460000D02*
X127815000Y-85460000D01*
G75*
G02*
X127680000Y-85325000I0J135000D01*
G01*
X127680000Y-85055000D01*
G75*
G02*
X127815000Y-84920000I135000J0D01*
G01*
X128185000Y-84920000D01*
G75*
G02*
X128320000Y-85055000I0J-135000D01*
G01*
X128320000Y-85325000D01*
G75*
G02*
X128185000Y-85460000I-135000J0D01*
G01*
G37*
G36*
G01*
X128185000Y-86480000D02*
X127815000Y-86480000D01*
G75*
G02*
X127680000Y-86345000I0J135000D01*
G01*
X127680000Y-86075000D01*
G75*
G02*
X127815000Y-85940000I135000J0D01*
G01*
X128185000Y-85940000D01*
G75*
G02*
X128320000Y-86075000I0J-135000D01*
G01*
X128320000Y-86345000D01*
G75*
G02*
X128185000Y-86480000I-135000J0D01*
G01*
G37*
%TD*%
%TO.C,C9*%
G36*
G01*
X124820000Y-87430000D02*
X124480000Y-87430000D01*
G75*
G02*
X124340000Y-87290000I0J140000D01*
G01*
X124340000Y-87010000D01*
G75*
G02*
X124480000Y-86870000I140000J0D01*
G01*
X124820000Y-86870000D01*
G75*
G02*
X124960000Y-87010000I0J-140000D01*
G01*
X124960000Y-87290000D01*
G75*
G02*
X124820000Y-87430000I-140000J0D01*
G01*
G37*
G36*
G01*
X124820000Y-88390000D02*
X124480000Y-88390000D01*
G75*
G02*
X124340000Y-88250000I0J140000D01*
G01*
X124340000Y-87970000D01*
G75*
G02*
X124480000Y-87830000I140000J0D01*
G01*
X124820000Y-87830000D01*
G75*
G02*
X124960000Y-87970000I0J-140000D01*
G01*
X124960000Y-88250000D01*
G75*
G02*
X124820000Y-88390000I-140000J0D01*
G01*
G37*
%TD*%
%TO.C,C8*%
G36*
G01*
X125870000Y-87450000D02*
X125530000Y-87450000D01*
G75*
G02*
X125390000Y-87310000I0J140000D01*
G01*
X125390000Y-87030000D01*
G75*
G02*
X125530000Y-86890000I140000J0D01*
G01*
X125870000Y-86890000D01*
G75*
G02*
X126010000Y-87030000I0J-140000D01*
G01*
X126010000Y-87310000D01*
G75*
G02*
X125870000Y-87450000I-140000J0D01*
G01*
G37*
G36*
G01*
X125870000Y-88410000D02*
X125530000Y-88410000D01*
G75*
G02*
X125390000Y-88270000I0J140000D01*
G01*
X125390000Y-87990000D01*
G75*
G02*
X125530000Y-87850000I140000J0D01*
G01*
X125870000Y-87850000D01*
G75*
G02*
X126010000Y-87990000I0J-140000D01*
G01*
X126010000Y-88270000D01*
G75*
G02*
X125870000Y-88410000I-140000J0D01*
G01*
G37*
%TD*%
%TO.C,C7*%
G36*
G01*
X126200000Y-83880000D02*
X126200000Y-84220000D01*
G75*
G02*
X126060000Y-84360000I-140000J0D01*
G01*
X125780000Y-84360000D01*
G75*
G02*
X125640000Y-84220000I0J140000D01*
G01*
X125640000Y-83880000D01*
G75*
G02*
X125780000Y-83740000I140000J0D01*
G01*
X126060000Y-83740000D01*
G75*
G02*
X126200000Y-83880000I0J-140000D01*
G01*
G37*
G36*
G01*
X127160000Y-83880000D02*
X127160000Y-84220000D01*
G75*
G02*
X127020000Y-84360000I-140000J0D01*
G01*
X126740000Y-84360000D01*
G75*
G02*
X126600000Y-84220000I0J140000D01*
G01*
X126600000Y-83880000D01*
G75*
G02*
X126740000Y-83740000I140000J0D01*
G01*
X127020000Y-83740000D01*
G75*
G02*
X127160000Y-83880000I0J-140000D01*
G01*
G37*
%TD*%
%TO.C,C6*%
G36*
G01*
X129920000Y-86870000D02*
X129920000Y-86530000D01*
G75*
G02*
X130060000Y-86390000I140000J0D01*
G01*
X130340000Y-86390000D01*
G75*
G02*
X130480000Y-86530000I0J-140000D01*
G01*
X130480000Y-86870000D01*
G75*
G02*
X130340000Y-87010000I-140000J0D01*
G01*
X130060000Y-87010000D01*
G75*
G02*
X129920000Y-86870000I0J140000D01*
G01*
G37*
G36*
G01*
X128960000Y-86870000D02*
X128960000Y-86530000D01*
G75*
G02*
X129100000Y-86390000I140000J0D01*
G01*
X129380000Y-86390000D01*
G75*
G02*
X129520000Y-86530000I0J-140000D01*
G01*
X129520000Y-86870000D01*
G75*
G02*
X129380000Y-87010000I-140000J0D01*
G01*
X129100000Y-87010000D01*
G75*
G02*
X128960000Y-86870000I0J140000D01*
G01*
G37*
%TD*%
%TO.C,C5*%
G36*
G01*
X128300000Y-83880000D02*
X128300000Y-84220000D01*
G75*
G02*
X128160000Y-84360000I-140000J0D01*
G01*
X127880000Y-84360000D01*
G75*
G02*
X127740000Y-84220000I0J140000D01*
G01*
X127740000Y-83880000D01*
G75*
G02*
X127880000Y-83740000I140000J0D01*
G01*
X128160000Y-83740000D01*
G75*
G02*
X128300000Y-83880000I0J-140000D01*
G01*
G37*
G36*
G01*
X129260000Y-83880000D02*
X129260000Y-84220000D01*
G75*
G02*
X129120000Y-84360000I-140000J0D01*
G01*
X128840000Y-84360000D01*
G75*
G02*
X128700000Y-84220000I0J140000D01*
G01*
X128700000Y-83880000D01*
G75*
G02*
X128840000Y-83740000I140000J0D01*
G01*
X129120000Y-83740000D01*
G75*
G02*
X129260000Y-83880000I0J-140000D01*
G01*
G37*
%TD*%
%TO.C,C4*%
G36*
G01*
X129900000Y-88070000D02*
X129900000Y-87730000D01*
G75*
G02*
X130040000Y-87590000I140000J0D01*
G01*
X130320000Y-87590000D01*
G75*
G02*
X130460000Y-87730000I0J-140000D01*
G01*
X130460000Y-88070000D01*
G75*
G02*
X130320000Y-88210000I-140000J0D01*
G01*
X130040000Y-88210000D01*
G75*
G02*
X129900000Y-88070000I0J140000D01*
G01*
G37*
G36*
G01*
X128940000Y-88070000D02*
X128940000Y-87730000D01*
G75*
G02*
X129080000Y-87590000I140000J0D01*
G01*
X129360000Y-87590000D01*
G75*
G02*
X129500000Y-87730000I0J-140000D01*
G01*
X129500000Y-88070000D01*
G75*
G02*
X129360000Y-88210000I-140000J0D01*
G01*
X129080000Y-88210000D01*
G75*
G02*
X128940000Y-88070000I0J140000D01*
G01*
G37*
%TD*%
%TO.C,C3*%
G36*
G01*
X129970000Y-97700000D02*
X129630000Y-97700000D01*
G75*
G02*
X129490000Y-97560000I0J140000D01*
G01*
X129490000Y-97280000D01*
G75*
G02*
X129630000Y-97140000I140000J0D01*
G01*
X129970000Y-97140000D01*
G75*
G02*
X130110000Y-97280000I0J-140000D01*
G01*
X130110000Y-97560000D01*
G75*
G02*
X129970000Y-97700000I-140000J0D01*
G01*
G37*
G36*
G01*
X129970000Y-98660000D02*
X129630000Y-98660000D01*
G75*
G02*
X129490000Y-98520000I0J140000D01*
G01*
X129490000Y-98240000D01*
G75*
G02*
X129630000Y-98100000I140000J0D01*
G01*
X129970000Y-98100000D01*
G75*
G02*
X130110000Y-98240000I0J-140000D01*
G01*
X130110000Y-98520000D01*
G75*
G02*
X129970000Y-98660000I-140000J0D01*
G01*
G37*
%TD*%
%TO.C,C2*%
G36*
G01*
X131270000Y-97700000D02*
X130930000Y-97700000D01*
G75*
G02*
X130790000Y-97560000I0J140000D01*
G01*
X130790000Y-97280000D01*
G75*
G02*
X130930000Y-97140000I140000J0D01*
G01*
X131270000Y-97140000D01*
G75*
G02*
X131410000Y-97280000I0J-140000D01*
G01*
X131410000Y-97560000D01*
G75*
G02*
X131270000Y-97700000I-140000J0D01*
G01*
G37*
G36*
G01*
X131270000Y-98660000D02*
X130930000Y-98660000D01*
G75*
G02*
X130790000Y-98520000I0J140000D01*
G01*
X130790000Y-98240000D01*
G75*
G02*
X130930000Y-98100000I140000J0D01*
G01*
X131270000Y-98100000D01*
G75*
G02*
X131410000Y-98240000I0J-140000D01*
G01*
X131410000Y-98520000D01*
G75*
G02*
X131270000Y-98660000I-140000J0D01*
G01*
G37*
%TD*%
%TO.C,C1*%
G36*
G01*
X131370000Y-87300000D02*
X131030000Y-87300000D01*
G75*
G02*
X130890000Y-87160000I0J140000D01*
G01*
X130890000Y-86880000D01*
G75*
G02*
X131030000Y-86740000I140000J0D01*
G01*
X131370000Y-86740000D01*
G75*
G02*
X131510000Y-86880000I0J-140000D01*
G01*
X131510000Y-87160000D01*
G75*
G02*
X131370000Y-87300000I-140000J0D01*
G01*
G37*
G36*
G01*
X131370000Y-88260000D02*
X131030000Y-88260000D01*
G75*
G02*
X130890000Y-88120000I0J140000D01*
G01*
X130890000Y-87840000D01*
G75*
G02*
X131030000Y-87700000I140000J0D01*
G01*
X131370000Y-87700000D01*
G75*
G02*
X131510000Y-87840000I0J-140000D01*
G01*
X131510000Y-88120000D01*
G75*
G02*
X131370000Y-88260000I-140000J0D01*
G01*
G37*
%TD*%
M02*
