%TF.GenerationSoftware,KiCad,Pcbnew,(5.1.8)-1*%
%TF.CreationDate,2021-11-13T21:13:11+08:00*%
%TF.ProjectId,pcm5102a,70636d35-3130-4326-912e-6b696361645f,rev?*%
%TF.SameCoordinates,Original*%
%TF.FileFunction,Copper,L1,Top*%
%TF.FilePolarity,Positive*%
%FSLAX46Y46*%
G04 Gerber Fmt 4.6, Leading zero omitted, Abs format (unit mm)*
G04 Created by KiCad (PCBNEW (5.1.8)-1) date 2021-11-13 21:13:11*
%MOMM*%
%LPD*%
G01*
G04 APERTURE LIST*
%TA.AperFunction,ComponentPad*%
%ADD10O,1.700000X1.700000*%
%TD*%
%TA.AperFunction,ComponentPad*%
%ADD11R,1.700000X1.700000*%
%TD*%
%TA.AperFunction,SMDPad,CuDef*%
%ADD12R,2.500000X1.200000*%
%TD*%
%TA.AperFunction,ViaPad*%
%ADD13C,0.600000*%
%TD*%
%TA.AperFunction,ViaPad*%
%ADD14C,0.800000*%
%TD*%
%TA.AperFunction,Conductor*%
%ADD15C,0.400000*%
%TD*%
%TA.AperFunction,Conductor*%
%ADD16C,0.250000*%
%TD*%
%TA.AperFunction,Conductor*%
%ADD17C,0.254000*%
%TD*%
%TA.AperFunction,Conductor*%
%ADD18C,0.350000*%
%TD*%
%ADD19C,0.300000*%
%ADD20C,0.350000*%
G04 APERTURE END LIST*
D10*
%TO.P,J3,3*%
%TO.N,/OL*%
X131080000Y-79500000D03*
%TO.P,J3,2*%
%TO.N,/OR*%
X128540000Y-79500000D03*
D11*
%TO.P,J3,1*%
%TO.N,GNDA*%
X126000000Y-79500000D03*
%TD*%
D10*
%TO.P,J2,6*%
%TO.N,+3V3*%
X131100000Y-101200000D03*
%TO.P,J2,5*%
%TO.N,GND*%
X128560000Y-101200000D03*
%TO.P,J2,4*%
%TO.N,/LRCK*%
X126020000Y-101200000D03*
%TO.P,J2,3*%
%TO.N,/DIN*%
X123480000Y-101200000D03*
%TO.P,J2,2*%
%TO.N,/BCK*%
X120940000Y-101200000D03*
D11*
%TO.P,J2,1*%
%TO.N,/MUTE*%
X118400000Y-101200000D03*
%TD*%
%TO.P,R7,2*%
%TO.N,Net-(R7-Pad2)*%
%TA.AperFunction,SMDPad,CuDef*%
G36*
G01*
X124785000Y-97660000D02*
X124415000Y-97660000D01*
G75*
G02*
X124280000Y-97525000I0J135000D01*
G01*
X124280000Y-97255000D01*
G75*
G02*
X124415000Y-97120000I135000J0D01*
G01*
X124785000Y-97120000D01*
G75*
G02*
X124920000Y-97255000I0J-135000D01*
G01*
X124920000Y-97525000D01*
G75*
G02*
X124785000Y-97660000I-135000J0D01*
G01*
G37*
%TD.AperFunction*%
%TO.P,R7,1*%
%TO.N,GND*%
%TA.AperFunction,SMDPad,CuDef*%
G36*
G01*
X124785000Y-98680000D02*
X124415000Y-98680000D01*
G75*
G02*
X124280000Y-98545000I0J135000D01*
G01*
X124280000Y-98275000D01*
G75*
G02*
X124415000Y-98140000I135000J0D01*
G01*
X124785000Y-98140000D01*
G75*
G02*
X124920000Y-98275000I0J-135000D01*
G01*
X124920000Y-98545000D01*
G75*
G02*
X124785000Y-98680000I-135000J0D01*
G01*
G37*
%TD.AperFunction*%
%TD*%
%TO.P,R6,2*%
%TO.N,GNDA*%
%TA.AperFunction,SMDPad,CuDef*%
G36*
G01*
X123250002Y-94300000D02*
X122349998Y-94300000D01*
G75*
G02*
X122100000Y-94050002I0J249998D01*
G01*
X122100000Y-93524998D01*
G75*
G02*
X122349998Y-93275000I249998J0D01*
G01*
X123250002Y-93275000D01*
G75*
G02*
X123500000Y-93524998I0J-249998D01*
G01*
X123500000Y-94050002D01*
G75*
G02*
X123250002Y-94300000I-249998J0D01*
G01*
G37*
%TD.AperFunction*%
%TO.P,R6,1*%
%TO.N,GND*%
%TA.AperFunction,SMDPad,CuDef*%
G36*
G01*
X123250002Y-96125000D02*
X122349998Y-96125000D01*
G75*
G02*
X122100000Y-95875002I0J249998D01*
G01*
X122100000Y-95349998D01*
G75*
G02*
X122349998Y-95100000I249998J0D01*
G01*
X123250002Y-95100000D01*
G75*
G02*
X123500000Y-95349998I0J-249998D01*
G01*
X123500000Y-95875002D01*
G75*
G02*
X123250002Y-96125000I-249998J0D01*
G01*
G37*
%TD.AperFunction*%
%TD*%
D12*
%TO.P,J1,R2*%
%TO.N,GNDA*%
X122150000Y-83225000D03*
%TO.P,J1,R1*%
%TO.N,/OR*%
X122150000Y-86225000D03*
%TO.P,J1,T*%
%TO.N,/OL*%
X122150000Y-90225000D03*
%TO.P,J1,S*%
%TO.N,N/C*%
X115650000Y-91325000D03*
%TD*%
%TO.P,U1,20*%
%TO.N,+3V3*%
%TA.AperFunction,SMDPad,CuDef*%
G36*
G01*
X130935000Y-94745000D02*
X131135000Y-94745000D01*
G75*
G02*
X131235000Y-94845000I0J-100000D01*
G01*
X131235000Y-96120000D01*
G75*
G02*
X131135000Y-96220000I-100000J0D01*
G01*
X130935000Y-96220000D01*
G75*
G02*
X130835000Y-96120000I0J100000D01*
G01*
X130835000Y-94845000D01*
G75*
G02*
X130935000Y-94745000I100000J0D01*
G01*
G37*
%TD.AperFunction*%
%TO.P,U1,19*%
%TO.N,GND*%
%TA.AperFunction,SMDPad,CuDef*%
G36*
G01*
X130285000Y-94745000D02*
X130485000Y-94745000D01*
G75*
G02*
X130585000Y-94845000I0J-100000D01*
G01*
X130585000Y-96120000D01*
G75*
G02*
X130485000Y-96220000I-100000J0D01*
G01*
X130285000Y-96220000D01*
G75*
G02*
X130185000Y-96120000I0J100000D01*
G01*
X130185000Y-94845000D01*
G75*
G02*
X130285000Y-94745000I100000J0D01*
G01*
G37*
%TD.AperFunction*%
%TO.P,U1,18*%
%TO.N,Net-(C3-Pad2)*%
%TA.AperFunction,SMDPad,CuDef*%
G36*
G01*
X129635000Y-94745000D02*
X129835000Y-94745000D01*
G75*
G02*
X129935000Y-94845000I0J-100000D01*
G01*
X129935000Y-96120000D01*
G75*
G02*
X129835000Y-96220000I-100000J0D01*
G01*
X129635000Y-96220000D01*
G75*
G02*
X129535000Y-96120000I0J100000D01*
G01*
X129535000Y-94845000D01*
G75*
G02*
X129635000Y-94745000I100000J0D01*
G01*
G37*
%TD.AperFunction*%
%TO.P,U1,17*%
%TO.N,/MUTE*%
%TA.AperFunction,SMDPad,CuDef*%
G36*
G01*
X128985000Y-94745000D02*
X129185000Y-94745000D01*
G75*
G02*
X129285000Y-94845000I0J-100000D01*
G01*
X129285000Y-96120000D01*
G75*
G02*
X129185000Y-96220000I-100000J0D01*
G01*
X128985000Y-96220000D01*
G75*
G02*
X128885000Y-96120000I0J100000D01*
G01*
X128885000Y-94845000D01*
G75*
G02*
X128985000Y-94745000I100000J0D01*
G01*
G37*
%TD.AperFunction*%
%TO.P,U1,16*%
%TO.N,GND*%
%TA.AperFunction,SMDPad,CuDef*%
G36*
G01*
X128335000Y-94745000D02*
X128535000Y-94745000D01*
G75*
G02*
X128635000Y-94845000I0J-100000D01*
G01*
X128635000Y-96120000D01*
G75*
G02*
X128535000Y-96220000I-100000J0D01*
G01*
X128335000Y-96220000D01*
G75*
G02*
X128235000Y-96120000I0J100000D01*
G01*
X128235000Y-94845000D01*
G75*
G02*
X128335000Y-94745000I100000J0D01*
G01*
G37*
%TD.AperFunction*%
%TO.P,U1,15*%
%TO.N,Net-(R2-Pad2)*%
%TA.AperFunction,SMDPad,CuDef*%
G36*
G01*
X127685000Y-94745000D02*
X127885000Y-94745000D01*
G75*
G02*
X127985000Y-94845000I0J-100000D01*
G01*
X127985000Y-96120000D01*
G75*
G02*
X127885000Y-96220000I-100000J0D01*
G01*
X127685000Y-96220000D01*
G75*
G02*
X127585000Y-96120000I0J100000D01*
G01*
X127585000Y-94845000D01*
G75*
G02*
X127685000Y-94745000I100000J0D01*
G01*
G37*
%TD.AperFunction*%
%TO.P,U1,14*%
%TO.N,Net-(R4-Pad2)*%
%TA.AperFunction,SMDPad,CuDef*%
G36*
G01*
X127035000Y-94745000D02*
X127235000Y-94745000D01*
G75*
G02*
X127335000Y-94845000I0J-100000D01*
G01*
X127335000Y-96120000D01*
G75*
G02*
X127235000Y-96220000I-100000J0D01*
G01*
X127035000Y-96220000D01*
G75*
G02*
X126935000Y-96120000I0J100000D01*
G01*
X126935000Y-94845000D01*
G75*
G02*
X127035000Y-94745000I100000J0D01*
G01*
G37*
%TD.AperFunction*%
%TO.P,U1,13*%
%TO.N,Net-(R5-Pad2)*%
%TA.AperFunction,SMDPad,CuDef*%
G36*
G01*
X126385000Y-94745000D02*
X126585000Y-94745000D01*
G75*
G02*
X126685000Y-94845000I0J-100000D01*
G01*
X126685000Y-96120000D01*
G75*
G02*
X126585000Y-96220000I-100000J0D01*
G01*
X126385000Y-96220000D01*
G75*
G02*
X126285000Y-96120000I0J100000D01*
G01*
X126285000Y-94845000D01*
G75*
G02*
X126385000Y-94745000I100000J0D01*
G01*
G37*
%TD.AperFunction*%
%TO.P,U1,12*%
%TO.N,Net-(R7-Pad2)*%
%TA.AperFunction,SMDPad,CuDef*%
G36*
G01*
X125735000Y-94745000D02*
X125935000Y-94745000D01*
G75*
G02*
X126035000Y-94845000I0J-100000D01*
G01*
X126035000Y-96120000D01*
G75*
G02*
X125935000Y-96220000I-100000J0D01*
G01*
X125735000Y-96220000D01*
G75*
G02*
X125635000Y-96120000I0J100000D01*
G01*
X125635000Y-94845000D01*
G75*
G02*
X125735000Y-94745000I100000J0D01*
G01*
G37*
%TD.AperFunction*%
%TO.P,U1,11*%
%TO.N,GND*%
%TA.AperFunction,SMDPad,CuDef*%
G36*
G01*
X125085000Y-94745000D02*
X125285000Y-94745000D01*
G75*
G02*
X125385000Y-94845000I0J-100000D01*
G01*
X125385000Y-96120000D01*
G75*
G02*
X125285000Y-96220000I-100000J0D01*
G01*
X125085000Y-96220000D01*
G75*
G02*
X124985000Y-96120000I0J100000D01*
G01*
X124985000Y-94845000D01*
G75*
G02*
X125085000Y-94745000I100000J0D01*
G01*
G37*
%TD.AperFunction*%
%TO.P,U1,10*%
%TA.AperFunction,SMDPad,CuDef*%
G36*
G01*
X125085000Y-89020000D02*
X125285000Y-89020000D01*
G75*
G02*
X125385000Y-89120000I0J-100000D01*
G01*
X125385000Y-90395000D01*
G75*
G02*
X125285000Y-90495000I-100000J0D01*
G01*
X125085000Y-90495000D01*
G75*
G02*
X124985000Y-90395000I0J100000D01*
G01*
X124985000Y-89120000D01*
G75*
G02*
X125085000Y-89020000I100000J0D01*
G01*
G37*
%TD.AperFunction*%
%TO.P,U1,9*%
%TO.N,GNDA*%
%TA.AperFunction,SMDPad,CuDef*%
G36*
G01*
X125735000Y-89020000D02*
X125935000Y-89020000D01*
G75*
G02*
X126035000Y-89120000I0J-100000D01*
G01*
X126035000Y-90395000D01*
G75*
G02*
X125935000Y-90495000I-100000J0D01*
G01*
X125735000Y-90495000D01*
G75*
G02*
X125635000Y-90395000I0J100000D01*
G01*
X125635000Y-89120000D01*
G75*
G02*
X125735000Y-89020000I100000J0D01*
G01*
G37*
%TD.AperFunction*%
%TO.P,U1,8*%
%TO.N,+3V3*%
%TA.AperFunction,SMDPad,CuDef*%
G36*
G01*
X126385000Y-89020000D02*
X126585000Y-89020000D01*
G75*
G02*
X126685000Y-89120000I0J-100000D01*
G01*
X126685000Y-90395000D01*
G75*
G02*
X126585000Y-90495000I-100000J0D01*
G01*
X126385000Y-90495000D01*
G75*
G02*
X126285000Y-90395000I0J100000D01*
G01*
X126285000Y-89120000D01*
G75*
G02*
X126385000Y-89020000I100000J0D01*
G01*
G37*
%TD.AperFunction*%
%TO.P,U1,7*%
%TO.N,Net-(R3-Pad1)*%
%TA.AperFunction,SMDPad,CuDef*%
G36*
G01*
X127035000Y-89020000D02*
X127235000Y-89020000D01*
G75*
G02*
X127335000Y-89120000I0J-100000D01*
G01*
X127335000Y-90395000D01*
G75*
G02*
X127235000Y-90495000I-100000J0D01*
G01*
X127035000Y-90495000D01*
G75*
G02*
X126935000Y-90395000I0J100000D01*
G01*
X126935000Y-89120000D01*
G75*
G02*
X127035000Y-89020000I100000J0D01*
G01*
G37*
%TD.AperFunction*%
%TO.P,U1,6*%
%TO.N,Net-(R1-Pad1)*%
%TA.AperFunction,SMDPad,CuDef*%
G36*
G01*
X127685000Y-89020000D02*
X127885000Y-89020000D01*
G75*
G02*
X127985000Y-89120000I0J-100000D01*
G01*
X127985000Y-90395000D01*
G75*
G02*
X127885000Y-90495000I-100000J0D01*
G01*
X127685000Y-90495000D01*
G75*
G02*
X127585000Y-90395000I0J100000D01*
G01*
X127585000Y-89120000D01*
G75*
G02*
X127685000Y-89020000I100000J0D01*
G01*
G37*
%TD.AperFunction*%
%TO.P,U1,5*%
%TO.N,Net-(C6-Pad1)*%
%TA.AperFunction,SMDPad,CuDef*%
G36*
G01*
X128335000Y-89020000D02*
X128535000Y-89020000D01*
G75*
G02*
X128635000Y-89120000I0J-100000D01*
G01*
X128635000Y-90395000D01*
G75*
G02*
X128535000Y-90495000I-100000J0D01*
G01*
X128335000Y-90495000D01*
G75*
G02*
X128235000Y-90395000I0J100000D01*
G01*
X128235000Y-89120000D01*
G75*
G02*
X128335000Y-89020000I100000J0D01*
G01*
G37*
%TD.AperFunction*%
%TO.P,U1,4*%
%TO.N,Net-(C4-Pad1)*%
%TA.AperFunction,SMDPad,CuDef*%
G36*
G01*
X128985000Y-89020000D02*
X129185000Y-89020000D01*
G75*
G02*
X129285000Y-89120000I0J-100000D01*
G01*
X129285000Y-90395000D01*
G75*
G02*
X129185000Y-90495000I-100000J0D01*
G01*
X128985000Y-90495000D01*
G75*
G02*
X128885000Y-90395000I0J100000D01*
G01*
X128885000Y-89120000D01*
G75*
G02*
X128985000Y-89020000I100000J0D01*
G01*
G37*
%TD.AperFunction*%
%TO.P,U1,3*%
%TO.N,GNDA*%
%TA.AperFunction,SMDPad,CuDef*%
G36*
G01*
X129635000Y-89020000D02*
X129835000Y-89020000D01*
G75*
G02*
X129935000Y-89120000I0J-100000D01*
G01*
X129935000Y-90395000D01*
G75*
G02*
X129835000Y-90495000I-100000J0D01*
G01*
X129635000Y-90495000D01*
G75*
G02*
X129535000Y-90395000I0J100000D01*
G01*
X129535000Y-89120000D01*
G75*
G02*
X129635000Y-89020000I100000J0D01*
G01*
G37*
%TD.AperFunction*%
%TO.P,U1,2*%
%TO.N,Net-(C4-Pad2)*%
%TA.AperFunction,SMDPad,CuDef*%
G36*
G01*
X130285000Y-89020000D02*
X130485000Y-89020000D01*
G75*
G02*
X130585000Y-89120000I0J-100000D01*
G01*
X130585000Y-90395000D01*
G75*
G02*
X130485000Y-90495000I-100000J0D01*
G01*
X130285000Y-90495000D01*
G75*
G02*
X130185000Y-90395000I0J100000D01*
G01*
X130185000Y-89120000D01*
G75*
G02*
X130285000Y-89020000I100000J0D01*
G01*
G37*
%TD.AperFunction*%
%TO.P,U1,1*%
%TO.N,+3V3*%
%TA.AperFunction,SMDPad,CuDef*%
G36*
G01*
X130935000Y-89020000D02*
X131135000Y-89020000D01*
G75*
G02*
X131235000Y-89120000I0J-100000D01*
G01*
X131235000Y-90395000D01*
G75*
G02*
X131135000Y-90495000I-100000J0D01*
G01*
X130935000Y-90495000D01*
G75*
G02*
X130835000Y-90395000I0J100000D01*
G01*
X130835000Y-89120000D01*
G75*
G02*
X130935000Y-89020000I100000J0D01*
G01*
G37*
%TD.AperFunction*%
%TD*%
%TO.P,R5,2*%
%TO.N,Net-(R5-Pad2)*%
%TA.AperFunction,SMDPad,CuDef*%
G36*
G01*
X125985000Y-97660000D02*
X125615000Y-97660000D01*
G75*
G02*
X125480000Y-97525000I0J135000D01*
G01*
X125480000Y-97255000D01*
G75*
G02*
X125615000Y-97120000I135000J0D01*
G01*
X125985000Y-97120000D01*
G75*
G02*
X126120000Y-97255000I0J-135000D01*
G01*
X126120000Y-97525000D01*
G75*
G02*
X125985000Y-97660000I-135000J0D01*
G01*
G37*
%TD.AperFunction*%
%TO.P,R5,1*%
%TO.N,/BCK*%
%TA.AperFunction,SMDPad,CuDef*%
G36*
G01*
X125985000Y-98680000D02*
X125615000Y-98680000D01*
G75*
G02*
X125480000Y-98545000I0J135000D01*
G01*
X125480000Y-98275000D01*
G75*
G02*
X125615000Y-98140000I135000J0D01*
G01*
X125985000Y-98140000D01*
G75*
G02*
X126120000Y-98275000I0J-135000D01*
G01*
X126120000Y-98545000D01*
G75*
G02*
X125985000Y-98680000I-135000J0D01*
G01*
G37*
%TD.AperFunction*%
%TD*%
%TO.P,R4,2*%
%TO.N,Net-(R4-Pad2)*%
%TA.AperFunction,SMDPad,CuDef*%
G36*
G01*
X127085000Y-97660000D02*
X126715000Y-97660000D01*
G75*
G02*
X126580000Y-97525000I0J135000D01*
G01*
X126580000Y-97255000D01*
G75*
G02*
X126715000Y-97120000I135000J0D01*
G01*
X127085000Y-97120000D01*
G75*
G02*
X127220000Y-97255000I0J-135000D01*
G01*
X127220000Y-97525000D01*
G75*
G02*
X127085000Y-97660000I-135000J0D01*
G01*
G37*
%TD.AperFunction*%
%TO.P,R4,1*%
%TO.N,/DIN*%
%TA.AperFunction,SMDPad,CuDef*%
G36*
G01*
X127085000Y-98680000D02*
X126715000Y-98680000D01*
G75*
G02*
X126580000Y-98545000I0J135000D01*
G01*
X126580000Y-98275000D01*
G75*
G02*
X126715000Y-98140000I135000J0D01*
G01*
X127085000Y-98140000D01*
G75*
G02*
X127220000Y-98275000I0J-135000D01*
G01*
X127220000Y-98545000D01*
G75*
G02*
X127085000Y-98680000I-135000J0D01*
G01*
G37*
%TD.AperFunction*%
%TD*%
%TO.P,R3,2*%
%TO.N,/OR*%
%TA.AperFunction,SMDPad,CuDef*%
G36*
G01*
X127085000Y-85460000D02*
X126715000Y-85460000D01*
G75*
G02*
X126580000Y-85325000I0J135000D01*
G01*
X126580000Y-85055000D01*
G75*
G02*
X126715000Y-84920000I135000J0D01*
G01*
X127085000Y-84920000D01*
G75*
G02*
X127220000Y-85055000I0J-135000D01*
G01*
X127220000Y-85325000D01*
G75*
G02*
X127085000Y-85460000I-135000J0D01*
G01*
G37*
%TD.AperFunction*%
%TO.P,R3,1*%
%TO.N,Net-(R3-Pad1)*%
%TA.AperFunction,SMDPad,CuDef*%
G36*
G01*
X127085000Y-86480000D02*
X126715000Y-86480000D01*
G75*
G02*
X126580000Y-86345000I0J135000D01*
G01*
X126580000Y-86075000D01*
G75*
G02*
X126715000Y-85940000I135000J0D01*
G01*
X127085000Y-85940000D01*
G75*
G02*
X127220000Y-86075000I0J-135000D01*
G01*
X127220000Y-86345000D01*
G75*
G02*
X127085000Y-86480000I-135000J0D01*
G01*
G37*
%TD.AperFunction*%
%TD*%
%TO.P,R2,2*%
%TO.N,Net-(R2-Pad2)*%
%TA.AperFunction,SMDPad,CuDef*%
G36*
G01*
X128185000Y-97660000D02*
X127815000Y-97660000D01*
G75*
G02*
X127680000Y-97525000I0J135000D01*
G01*
X127680000Y-97255000D01*
G75*
G02*
X127815000Y-97120000I135000J0D01*
G01*
X128185000Y-97120000D01*
G75*
G02*
X128320000Y-97255000I0J-135000D01*
G01*
X128320000Y-97525000D01*
G75*
G02*
X128185000Y-97660000I-135000J0D01*
G01*
G37*
%TD.AperFunction*%
%TO.P,R2,1*%
%TO.N,/LRCK*%
%TA.AperFunction,SMDPad,CuDef*%
G36*
G01*
X128185000Y-98680000D02*
X127815000Y-98680000D01*
G75*
G02*
X127680000Y-98545000I0J135000D01*
G01*
X127680000Y-98275000D01*
G75*
G02*
X127815000Y-98140000I135000J0D01*
G01*
X128185000Y-98140000D01*
G75*
G02*
X128320000Y-98275000I0J-135000D01*
G01*
X128320000Y-98545000D01*
G75*
G02*
X128185000Y-98680000I-135000J0D01*
G01*
G37*
%TD.AperFunction*%
%TD*%
%TO.P,R1,2*%
%TO.N,/OL*%
%TA.AperFunction,SMDPad,CuDef*%
G36*
G01*
X128185000Y-85460000D02*
X127815000Y-85460000D01*
G75*
G02*
X127680000Y-85325000I0J135000D01*
G01*
X127680000Y-85055000D01*
G75*
G02*
X127815000Y-84920000I135000J0D01*
G01*
X128185000Y-84920000D01*
G75*
G02*
X128320000Y-85055000I0J-135000D01*
G01*
X128320000Y-85325000D01*
G75*
G02*
X128185000Y-85460000I-135000J0D01*
G01*
G37*
%TD.AperFunction*%
%TO.P,R1,1*%
%TO.N,Net-(R1-Pad1)*%
%TA.AperFunction,SMDPad,CuDef*%
G36*
G01*
X128185000Y-86480000D02*
X127815000Y-86480000D01*
G75*
G02*
X127680000Y-86345000I0J135000D01*
G01*
X127680000Y-86075000D01*
G75*
G02*
X127815000Y-85940000I135000J0D01*
G01*
X128185000Y-85940000D01*
G75*
G02*
X128320000Y-86075000I0J-135000D01*
G01*
X128320000Y-86345000D01*
G75*
G02*
X128185000Y-86480000I-135000J0D01*
G01*
G37*
%TD.AperFunction*%
%TD*%
%TO.P,C9,2*%
%TO.N,+3V3*%
%TA.AperFunction,SMDPad,CuDef*%
G36*
G01*
X124820000Y-87430000D02*
X124480000Y-87430000D01*
G75*
G02*
X124340000Y-87290000I0J140000D01*
G01*
X124340000Y-87010000D01*
G75*
G02*
X124480000Y-86870000I140000J0D01*
G01*
X124820000Y-86870000D01*
G75*
G02*
X124960000Y-87010000I0J-140000D01*
G01*
X124960000Y-87290000D01*
G75*
G02*
X124820000Y-87430000I-140000J0D01*
G01*
G37*
%TD.AperFunction*%
%TO.P,C9,1*%
%TO.N,GNDA*%
%TA.AperFunction,SMDPad,CuDef*%
G36*
G01*
X124820000Y-88390000D02*
X124480000Y-88390000D01*
G75*
G02*
X124340000Y-88250000I0J140000D01*
G01*
X124340000Y-87970000D01*
G75*
G02*
X124480000Y-87830000I140000J0D01*
G01*
X124820000Y-87830000D01*
G75*
G02*
X124960000Y-87970000I0J-140000D01*
G01*
X124960000Y-88250000D01*
G75*
G02*
X124820000Y-88390000I-140000J0D01*
G01*
G37*
%TD.AperFunction*%
%TD*%
%TO.P,C8,2*%
%TO.N,+3V3*%
%TA.AperFunction,SMDPad,CuDef*%
G36*
G01*
X125870000Y-87450000D02*
X125530000Y-87450000D01*
G75*
G02*
X125390000Y-87310000I0J140000D01*
G01*
X125390000Y-87030000D01*
G75*
G02*
X125530000Y-86890000I140000J0D01*
G01*
X125870000Y-86890000D01*
G75*
G02*
X126010000Y-87030000I0J-140000D01*
G01*
X126010000Y-87310000D01*
G75*
G02*
X125870000Y-87450000I-140000J0D01*
G01*
G37*
%TD.AperFunction*%
%TO.P,C8,1*%
%TO.N,GNDA*%
%TA.AperFunction,SMDPad,CuDef*%
G36*
G01*
X125870000Y-88410000D02*
X125530000Y-88410000D01*
G75*
G02*
X125390000Y-88270000I0J140000D01*
G01*
X125390000Y-87990000D01*
G75*
G02*
X125530000Y-87850000I140000J0D01*
G01*
X125870000Y-87850000D01*
G75*
G02*
X126010000Y-87990000I0J-140000D01*
G01*
X126010000Y-88270000D01*
G75*
G02*
X125870000Y-88410000I-140000J0D01*
G01*
G37*
%TD.AperFunction*%
%TD*%
%TO.P,C7,2*%
%TO.N,GNDA*%
%TA.AperFunction,SMDPad,CuDef*%
G36*
G01*
X126200000Y-83880000D02*
X126200000Y-84220000D01*
G75*
G02*
X126060000Y-84360000I-140000J0D01*
G01*
X125780000Y-84360000D01*
G75*
G02*
X125640000Y-84220000I0J140000D01*
G01*
X125640000Y-83880000D01*
G75*
G02*
X125780000Y-83740000I140000J0D01*
G01*
X126060000Y-83740000D01*
G75*
G02*
X126200000Y-83880000I0J-140000D01*
G01*
G37*
%TD.AperFunction*%
%TO.P,C7,1*%
%TO.N,/OR*%
%TA.AperFunction,SMDPad,CuDef*%
G36*
G01*
X127160000Y-83880000D02*
X127160000Y-84220000D01*
G75*
G02*
X127020000Y-84360000I-140000J0D01*
G01*
X126740000Y-84360000D01*
G75*
G02*
X126600000Y-84220000I0J140000D01*
G01*
X126600000Y-83880000D01*
G75*
G02*
X126740000Y-83740000I140000J0D01*
G01*
X127020000Y-83740000D01*
G75*
G02*
X127160000Y-83880000I0J-140000D01*
G01*
G37*
%TD.AperFunction*%
%TD*%
%TO.P,C6,2*%
%TO.N,GNDA*%
%TA.AperFunction,SMDPad,CuDef*%
G36*
G01*
X129920000Y-86870000D02*
X129920000Y-86530000D01*
G75*
G02*
X130060000Y-86390000I140000J0D01*
G01*
X130340000Y-86390000D01*
G75*
G02*
X130480000Y-86530000I0J-140000D01*
G01*
X130480000Y-86870000D01*
G75*
G02*
X130340000Y-87010000I-140000J0D01*
G01*
X130060000Y-87010000D01*
G75*
G02*
X129920000Y-86870000I0J140000D01*
G01*
G37*
%TD.AperFunction*%
%TO.P,C6,1*%
%TO.N,Net-(C6-Pad1)*%
%TA.AperFunction,SMDPad,CuDef*%
G36*
G01*
X128960000Y-86870000D02*
X128960000Y-86530000D01*
G75*
G02*
X129100000Y-86390000I140000J0D01*
G01*
X129380000Y-86390000D01*
G75*
G02*
X129520000Y-86530000I0J-140000D01*
G01*
X129520000Y-86870000D01*
G75*
G02*
X129380000Y-87010000I-140000J0D01*
G01*
X129100000Y-87010000D01*
G75*
G02*
X128960000Y-86870000I0J140000D01*
G01*
G37*
%TD.AperFunction*%
%TD*%
%TO.P,C5,2*%
%TO.N,/OL*%
%TA.AperFunction,SMDPad,CuDef*%
G36*
G01*
X128300000Y-83880000D02*
X128300000Y-84220000D01*
G75*
G02*
X128160000Y-84360000I-140000J0D01*
G01*
X127880000Y-84360000D01*
G75*
G02*
X127740000Y-84220000I0J140000D01*
G01*
X127740000Y-83880000D01*
G75*
G02*
X127880000Y-83740000I140000J0D01*
G01*
X128160000Y-83740000D01*
G75*
G02*
X128300000Y-83880000I0J-140000D01*
G01*
G37*
%TD.AperFunction*%
%TO.P,C5,1*%
%TO.N,GNDA*%
%TA.AperFunction,SMDPad,CuDef*%
G36*
G01*
X129260000Y-83880000D02*
X129260000Y-84220000D01*
G75*
G02*
X129120000Y-84360000I-140000J0D01*
G01*
X128840000Y-84360000D01*
G75*
G02*
X128700000Y-84220000I0J140000D01*
G01*
X128700000Y-83880000D01*
G75*
G02*
X128840000Y-83740000I140000J0D01*
G01*
X129120000Y-83740000D01*
G75*
G02*
X129260000Y-83880000I0J-140000D01*
G01*
G37*
%TD.AperFunction*%
%TD*%
%TO.P,C4,2*%
%TO.N,Net-(C4-Pad2)*%
%TA.AperFunction,SMDPad,CuDef*%
G36*
G01*
X129900000Y-88070000D02*
X129900000Y-87730000D01*
G75*
G02*
X130040000Y-87590000I140000J0D01*
G01*
X130320000Y-87590000D01*
G75*
G02*
X130460000Y-87730000I0J-140000D01*
G01*
X130460000Y-88070000D01*
G75*
G02*
X130320000Y-88210000I-140000J0D01*
G01*
X130040000Y-88210000D01*
G75*
G02*
X129900000Y-88070000I0J140000D01*
G01*
G37*
%TD.AperFunction*%
%TO.P,C4,1*%
%TO.N,Net-(C4-Pad1)*%
%TA.AperFunction,SMDPad,CuDef*%
G36*
G01*
X128940000Y-88070000D02*
X128940000Y-87730000D01*
G75*
G02*
X129080000Y-87590000I140000J0D01*
G01*
X129360000Y-87590000D01*
G75*
G02*
X129500000Y-87730000I0J-140000D01*
G01*
X129500000Y-88070000D01*
G75*
G02*
X129360000Y-88210000I-140000J0D01*
G01*
X129080000Y-88210000D01*
G75*
G02*
X128940000Y-88070000I0J140000D01*
G01*
G37*
%TD.AperFunction*%
%TD*%
%TO.P,C3,2*%
%TO.N,Net-(C3-Pad2)*%
%TA.AperFunction,SMDPad,CuDef*%
G36*
G01*
X129970000Y-97700000D02*
X129630000Y-97700000D01*
G75*
G02*
X129490000Y-97560000I0J140000D01*
G01*
X129490000Y-97280000D01*
G75*
G02*
X129630000Y-97140000I140000J0D01*
G01*
X129970000Y-97140000D01*
G75*
G02*
X130110000Y-97280000I0J-140000D01*
G01*
X130110000Y-97560000D01*
G75*
G02*
X129970000Y-97700000I-140000J0D01*
G01*
G37*
%TD.AperFunction*%
%TO.P,C3,1*%
%TO.N,GND*%
%TA.AperFunction,SMDPad,CuDef*%
G36*
G01*
X129970000Y-98660000D02*
X129630000Y-98660000D01*
G75*
G02*
X129490000Y-98520000I0J140000D01*
G01*
X129490000Y-98240000D01*
G75*
G02*
X129630000Y-98100000I140000J0D01*
G01*
X129970000Y-98100000D01*
G75*
G02*
X130110000Y-98240000I0J-140000D01*
G01*
X130110000Y-98520000D01*
G75*
G02*
X129970000Y-98660000I-140000J0D01*
G01*
G37*
%TD.AperFunction*%
%TD*%
%TO.P,C2,2*%
%TO.N,+3V3*%
%TA.AperFunction,SMDPad,CuDef*%
G36*
G01*
X131270000Y-97700000D02*
X130930000Y-97700000D01*
G75*
G02*
X130790000Y-97560000I0J140000D01*
G01*
X130790000Y-97280000D01*
G75*
G02*
X130930000Y-97140000I140000J0D01*
G01*
X131270000Y-97140000D01*
G75*
G02*
X131410000Y-97280000I0J-140000D01*
G01*
X131410000Y-97560000D01*
G75*
G02*
X131270000Y-97700000I-140000J0D01*
G01*
G37*
%TD.AperFunction*%
%TO.P,C2,1*%
%TO.N,GND*%
%TA.AperFunction,SMDPad,CuDef*%
G36*
G01*
X131270000Y-98660000D02*
X130930000Y-98660000D01*
G75*
G02*
X130790000Y-98520000I0J140000D01*
G01*
X130790000Y-98240000D01*
G75*
G02*
X130930000Y-98100000I140000J0D01*
G01*
X131270000Y-98100000D01*
G75*
G02*
X131410000Y-98240000I0J-140000D01*
G01*
X131410000Y-98520000D01*
G75*
G02*
X131270000Y-98660000I-140000J0D01*
G01*
G37*
%TD.AperFunction*%
%TD*%
%TO.P,C1,2*%
%TO.N,GNDA*%
%TA.AperFunction,SMDPad,CuDef*%
G36*
G01*
X131370000Y-87300000D02*
X131030000Y-87300000D01*
G75*
G02*
X130890000Y-87160000I0J140000D01*
G01*
X130890000Y-86880000D01*
G75*
G02*
X131030000Y-86740000I140000J0D01*
G01*
X131370000Y-86740000D01*
G75*
G02*
X131510000Y-86880000I0J-140000D01*
G01*
X131510000Y-87160000D01*
G75*
G02*
X131370000Y-87300000I-140000J0D01*
G01*
G37*
%TD.AperFunction*%
%TO.P,C1,1*%
%TO.N,+3V3*%
%TA.AperFunction,SMDPad,CuDef*%
G36*
G01*
X131370000Y-88260000D02*
X131030000Y-88260000D01*
G75*
G02*
X130890000Y-88120000I0J140000D01*
G01*
X130890000Y-87840000D01*
G75*
G02*
X131030000Y-87700000I140000J0D01*
G01*
X131370000Y-87700000D01*
G75*
G02*
X131510000Y-87840000I0J-140000D01*
G01*
X131510000Y-88120000D01*
G75*
G02*
X131370000Y-88260000I-140000J0D01*
G01*
G37*
%TD.AperFunction*%
%TD*%
D13*
%TO.N,GNDA*%
X129700000Y-91000000D03*
X130000000Y-84000000D03*
X125100000Y-84100000D03*
%TO.N,GND*%
X130500000Y-99200000D03*
X121200000Y-95600000D03*
X128400000Y-94100000D03*
%TO.N,/MUTE*%
X129000000Y-99200000D03*
D14*
%TO.N,/OL*%
X122400000Y-88900000D03*
%TO.N,/OR*%
X123200000Y-84800000D03*
%TD*%
D15*
%TO.N,GNDA*%
X125680000Y-88110000D02*
X125700000Y-88130000D01*
X124650000Y-88110000D02*
X125680000Y-88110000D01*
X125835000Y-88265000D02*
X125700000Y-88130000D01*
X125835000Y-89757500D02*
X125835000Y-88265000D01*
D16*
X129735000Y-90965000D02*
X129700000Y-91000000D01*
X129735000Y-89757500D02*
X129735000Y-90965000D01*
X129950000Y-84050000D02*
X130000000Y-84000000D01*
X128980000Y-84050000D02*
X129950000Y-84050000D01*
X125150000Y-84050000D02*
X125100000Y-84100000D01*
X125920000Y-84050000D02*
X125150000Y-84050000D01*
D15*
%TO.N,+3V3*%
X131035000Y-97355000D02*
X131100000Y-97420000D01*
X131035000Y-95482500D02*
X131035000Y-97355000D01*
X131035000Y-88145000D02*
X131200000Y-87980000D01*
X131035000Y-89757500D02*
X131035000Y-88145000D01*
X125680000Y-87150000D02*
X125700000Y-87170000D01*
X124650000Y-87150000D02*
X125680000Y-87150000D01*
X126120000Y-87170000D02*
X126485000Y-87535000D01*
X126485000Y-87535000D02*
X126485000Y-89757500D01*
X125700000Y-87170000D02*
X126120000Y-87170000D01*
X131949999Y-100050001D02*
X131100000Y-100900000D01*
X131949999Y-97959999D02*
X131949999Y-100050001D01*
X131410000Y-97420000D02*
X131949999Y-97959999D01*
X131100000Y-97420000D02*
X131410000Y-97420000D01*
X131035000Y-91965000D02*
X131035000Y-95482500D01*
X131035000Y-89757500D02*
X131035000Y-91965000D01*
X127365000Y-91965000D02*
X131035000Y-91965000D01*
X126485000Y-91085000D02*
X127365000Y-91965000D01*
X126485000Y-89757500D02*
X126485000Y-91085000D01*
%TO.N,GND*%
X125185000Y-89757500D02*
X125185000Y-95482500D01*
D16*
X130435010Y-99135010D02*
X130500000Y-99200000D01*
X130435010Y-95532510D02*
X130435010Y-99135010D01*
X130385000Y-95482500D02*
X130435010Y-95532510D01*
X121212500Y-95612500D02*
X121200000Y-95600000D01*
X122800000Y-95612500D02*
X121212500Y-95612500D01*
D15*
X130500000Y-99260000D02*
X128560000Y-101200000D01*
X130500000Y-99200000D02*
X130500000Y-99260000D01*
D16*
X128435000Y-94135000D02*
X128400000Y-94100000D01*
X128435000Y-95482500D02*
X128435000Y-94135000D01*
D15*
X125055000Y-95612500D02*
X125185000Y-95482500D01*
X122800000Y-95612500D02*
X125055000Y-95612500D01*
%TO.N,Net-(C3-Pad2)*%
X129735000Y-97355000D02*
X129800000Y-97420000D01*
X129735000Y-95482500D02*
X129735000Y-97355000D01*
%TO.N,Net-(C4-Pad1)*%
X129085000Y-88035000D02*
X129220000Y-87900000D01*
X129085000Y-89757500D02*
X129085000Y-88035000D01*
%TO.N,Net-(C6-Pad1)*%
X129000000Y-86700000D02*
X129240000Y-86700000D01*
X128435000Y-87265000D02*
X129000000Y-86700000D01*
X128435000Y-89757500D02*
X128435000Y-87265000D01*
%TO.N,Net-(R1-Pad1)*%
X127785000Y-86425000D02*
X128000000Y-86210000D01*
X127785000Y-89757500D02*
X127785000Y-86425000D01*
%TO.N,Net-(R2-Pad2)*%
X127785000Y-97175000D02*
X128000000Y-97390000D01*
X127785000Y-95482500D02*
X127785000Y-97175000D01*
%TO.N,Net-(R3-Pad1)*%
X127135000Y-86445000D02*
X126900000Y-86210000D01*
X127135000Y-89757500D02*
X127135000Y-86445000D01*
%TO.N,Net-(R4-Pad2)*%
X127135000Y-97155000D02*
X126900000Y-97390000D01*
X127135000Y-95482500D02*
X127135000Y-97155000D01*
%TO.N,Net-(R5-Pad2)*%
X126485000Y-96705000D02*
X125800000Y-97390000D01*
X126485000Y-95482500D02*
X126485000Y-96705000D01*
%TO.N,/LRCK*%
X128000000Y-99220000D02*
X126020000Y-101200000D01*
X128000000Y-98410000D02*
X128000000Y-99220000D01*
%TO.N,/DIN*%
X124110000Y-101200000D02*
X123480000Y-101200000D01*
X126900000Y-98410000D02*
X124110000Y-101200000D01*
%TO.N,/BCK*%
X122440000Y-99700000D02*
X120940000Y-101200000D01*
X124510000Y-99700000D02*
X122440000Y-99700000D01*
X125800000Y-98410000D02*
X124510000Y-99700000D01*
%TO.N,/MUTE*%
X129085000Y-99115000D02*
X129000000Y-99200000D01*
X129085000Y-95482500D02*
X129085000Y-99115000D01*
%TO.N,/OL*%
X128020000Y-85170000D02*
X128000000Y-85190000D01*
X128020000Y-84050000D02*
X128020000Y-85170000D01*
X128020000Y-82560000D02*
X131080000Y-79500000D01*
X128020000Y-84050000D02*
X128020000Y-82560000D01*
X122400000Y-89975000D02*
X122150000Y-90225000D01*
X122400000Y-88900000D02*
X122400000Y-89975000D01*
%TO.N,/OR*%
X126880000Y-85170000D02*
X126900000Y-85190000D01*
X126880000Y-84050000D02*
X126880000Y-85170000D01*
X126880000Y-82720000D02*
X126880000Y-84050000D01*
X128540000Y-81060000D02*
X126880000Y-82720000D01*
X128540000Y-79500000D02*
X128540000Y-81060000D01*
X123200000Y-85175000D02*
X122150000Y-86225000D01*
X123200000Y-84800000D02*
X123200000Y-85175000D01*
%TO.N,Net-(C4-Pad2)*%
X130385000Y-88105000D02*
X130180000Y-87900000D01*
X130385000Y-89757500D02*
X130385000Y-88105000D01*
%TO.N,Net-(R7-Pad2)*%
X124722124Y-97390000D02*
X124600000Y-97390000D01*
X125835000Y-96277124D02*
X124722124Y-97390000D01*
X125835000Y-95482500D02*
X125835000Y-96277124D01*
%TD*%
D17*
%TO.N,GNDA*%
X124560498Y-78405820D02*
X124524188Y-78525518D01*
X124511928Y-78650000D01*
X124515000Y-79214250D01*
X124673750Y-79373000D01*
X125873000Y-79373000D01*
X125873000Y-79353000D01*
X126127000Y-79353000D01*
X126127000Y-79373000D01*
X126147000Y-79373000D01*
X126147000Y-79627000D01*
X126127000Y-79627000D01*
X126127000Y-80826250D01*
X126285750Y-80985000D01*
X126850000Y-80988072D01*
X126974482Y-80975812D01*
X127094180Y-80939502D01*
X127204494Y-80880537D01*
X127301185Y-80801185D01*
X127380537Y-80704494D01*
X127439502Y-80594180D01*
X127461513Y-80521620D01*
X127593368Y-80653475D01*
X127696647Y-80722484D01*
X126318579Y-82100554D01*
X126286709Y-82126709D01*
X126194626Y-82238914D01*
X126182364Y-82253855D01*
X126104828Y-82398914D01*
X126057082Y-82556312D01*
X126040960Y-82720000D01*
X126045000Y-82761019D01*
X126045001Y-83537633D01*
X126021155Y-83582245D01*
X125976878Y-83728206D01*
X125961928Y-83880000D01*
X125961928Y-84220000D01*
X125976878Y-84371794D01*
X126021155Y-84517755D01*
X126045000Y-84562367D01*
X126045001Y-84676417D01*
X126000775Y-84759158D01*
X125956782Y-84904181D01*
X125941928Y-85055000D01*
X125941928Y-85325000D01*
X125956782Y-85475819D01*
X126000775Y-85620842D01*
X126043086Y-85700000D01*
X126000775Y-85779158D01*
X125956782Y-85924181D01*
X125941928Y-86075000D01*
X125941928Y-86259012D01*
X125870000Y-86251928D01*
X125530000Y-86251928D01*
X125378206Y-86266878D01*
X125232245Y-86311155D01*
X125225052Y-86315000D01*
X125162366Y-86315000D01*
X125117755Y-86291155D01*
X124971794Y-86246878D01*
X124820000Y-86231928D01*
X124480000Y-86231928D01*
X124328206Y-86246878D01*
X124182245Y-86291155D01*
X124047726Y-86363057D01*
X124038072Y-86370980D01*
X124038072Y-85625000D01*
X124025812Y-85500518D01*
X124010481Y-85449980D01*
X124117205Y-85290256D01*
X124195226Y-85101898D01*
X124235000Y-84901939D01*
X124235000Y-84698061D01*
X124195226Y-84498102D01*
X124136812Y-84357077D01*
X125001935Y-84357077D01*
X125013625Y-84481613D01*
X125049386Y-84601476D01*
X125107844Y-84712059D01*
X125186753Y-84809113D01*
X125283079Y-84888908D01*
X125393122Y-84948377D01*
X125512652Y-84985235D01*
X125634250Y-84995000D01*
X125793000Y-84836250D01*
X125793000Y-84177000D01*
X125163750Y-84177000D01*
X125005000Y-84335750D01*
X125001935Y-84357077D01*
X124136812Y-84357077D01*
X124117205Y-84309744D01*
X124003937Y-84140226D01*
X123969783Y-84106072D01*
X123989502Y-84069180D01*
X124025812Y-83949482D01*
X124038072Y-83825000D01*
X124037270Y-83742923D01*
X125001935Y-83742923D01*
X125005000Y-83764250D01*
X125163750Y-83923000D01*
X125793000Y-83923000D01*
X125793000Y-83263750D01*
X125634250Y-83105000D01*
X125512652Y-83114765D01*
X125393122Y-83151623D01*
X125283079Y-83211092D01*
X125186753Y-83290887D01*
X125107844Y-83387941D01*
X125049386Y-83498524D01*
X125013625Y-83618387D01*
X125001935Y-83742923D01*
X124037270Y-83742923D01*
X124035000Y-83510750D01*
X123876250Y-83352000D01*
X122277000Y-83352000D01*
X122277000Y-84301250D01*
X122283876Y-84308126D01*
X122282795Y-84309744D01*
X122204774Y-84498102D01*
X122165000Y-84698061D01*
X122165000Y-84901939D01*
X122181905Y-84986928D01*
X120900000Y-84986928D01*
X120775518Y-84999188D01*
X120655820Y-85035498D01*
X120545506Y-85094463D01*
X120448815Y-85173815D01*
X120369463Y-85270506D01*
X120310498Y-85380820D01*
X120274188Y-85500518D01*
X120261928Y-85625000D01*
X120261928Y-86825000D01*
X120274188Y-86949482D01*
X120310498Y-87069180D01*
X120369463Y-87179494D01*
X120448815Y-87276185D01*
X120545506Y-87355537D01*
X120655820Y-87414502D01*
X120775518Y-87450812D01*
X120900000Y-87463072D01*
X123400000Y-87463072D01*
X123524482Y-87450812D01*
X123644180Y-87414502D01*
X123710689Y-87378952D01*
X123716878Y-87441794D01*
X123756828Y-87573491D01*
X123751623Y-87583122D01*
X123714765Y-87702652D01*
X123705000Y-87824250D01*
X123863750Y-87983000D01*
X124133892Y-87983000D01*
X124182245Y-88008845D01*
X124328206Y-88053122D01*
X124480000Y-88068072D01*
X124820000Y-88068072D01*
X124971794Y-88053122D01*
X125117755Y-88008845D01*
X125128690Y-88003000D01*
X125183892Y-88003000D01*
X125232245Y-88028845D01*
X125378206Y-88073122D01*
X125530000Y-88088072D01*
X125650000Y-88088072D01*
X125650000Y-88277000D01*
X125573000Y-88277000D01*
X125573000Y-88257000D01*
X125456250Y-88257000D01*
X125436250Y-88237000D01*
X124777000Y-88237000D01*
X124777000Y-88257000D01*
X124523000Y-88257000D01*
X124523000Y-88237000D01*
X123863750Y-88237000D01*
X123705000Y-88395750D01*
X123714765Y-88517348D01*
X123751623Y-88636878D01*
X123811092Y-88746921D01*
X123890887Y-88843247D01*
X123987941Y-88922156D01*
X124098524Y-88980614D01*
X124218387Y-89016375D01*
X124342923Y-89028065D01*
X124356170Y-89026161D01*
X124346928Y-89120000D01*
X124346928Y-90395000D01*
X124350000Y-90426192D01*
X124350001Y-94373000D01*
X124130882Y-94373000D01*
X124138072Y-94300000D01*
X124135000Y-94073250D01*
X123976250Y-93914500D01*
X122927000Y-93914500D01*
X122927000Y-93934500D01*
X122673000Y-93934500D01*
X122673000Y-93914500D01*
X121623750Y-93914500D01*
X121465000Y-94073250D01*
X121461928Y-94300000D01*
X121469118Y-94373000D01*
X114360000Y-94373000D01*
X114360000Y-93275000D01*
X121461928Y-93275000D01*
X121465000Y-93501750D01*
X121623750Y-93660500D01*
X122673000Y-93660500D01*
X122673000Y-92798750D01*
X122927000Y-92798750D01*
X122927000Y-93660500D01*
X123976250Y-93660500D01*
X124135000Y-93501750D01*
X124138072Y-93275000D01*
X124125812Y-93150518D01*
X124089502Y-93030820D01*
X124030537Y-92920506D01*
X123951185Y-92823815D01*
X123854494Y-92744463D01*
X123744180Y-92685498D01*
X123624482Y-92649188D01*
X123500000Y-92636928D01*
X123085750Y-92640000D01*
X122927000Y-92798750D01*
X122673000Y-92798750D01*
X122514250Y-92640000D01*
X122100000Y-92636928D01*
X121975518Y-92649188D01*
X121855820Y-92685498D01*
X121745506Y-92744463D01*
X121648815Y-92823815D01*
X121569463Y-92920506D01*
X121510498Y-93030820D01*
X121474188Y-93150518D01*
X121461928Y-93275000D01*
X114360000Y-93275000D01*
X114360000Y-92559132D01*
X114400000Y-92563072D01*
X116900000Y-92563072D01*
X117024482Y-92550812D01*
X117144180Y-92514502D01*
X117254494Y-92455537D01*
X117351185Y-92376185D01*
X117430537Y-92279494D01*
X117489502Y-92169180D01*
X117525812Y-92049482D01*
X117538072Y-91925000D01*
X117538072Y-90725000D01*
X117525812Y-90600518D01*
X117489502Y-90480820D01*
X117430537Y-90370506D01*
X117351185Y-90273815D01*
X117254494Y-90194463D01*
X117144180Y-90135498D01*
X117024482Y-90099188D01*
X116900000Y-90086928D01*
X114400000Y-90086928D01*
X114360000Y-90090868D01*
X114360000Y-88488589D01*
X117515000Y-88488589D01*
X117515000Y-88761411D01*
X117568225Y-89028989D01*
X117672629Y-89281043D01*
X117824201Y-89507886D01*
X118017114Y-89700799D01*
X118243957Y-89852371D01*
X118496011Y-89956775D01*
X118763589Y-90010000D01*
X119036411Y-90010000D01*
X119303989Y-89956775D01*
X119556043Y-89852371D01*
X119782886Y-89700799D01*
X119858685Y-89625000D01*
X120261928Y-89625000D01*
X120261928Y-90825000D01*
X120274188Y-90949482D01*
X120310498Y-91069180D01*
X120369463Y-91179494D01*
X120448815Y-91276185D01*
X120545506Y-91355537D01*
X120655820Y-91414502D01*
X120775518Y-91450812D01*
X120900000Y-91463072D01*
X123400000Y-91463072D01*
X123524482Y-91450812D01*
X123644180Y-91414502D01*
X123754494Y-91355537D01*
X123851185Y-91276185D01*
X123930537Y-91179494D01*
X123989502Y-91069180D01*
X124025812Y-90949482D01*
X124038072Y-90825000D01*
X124038072Y-89625000D01*
X124025812Y-89500518D01*
X123989502Y-89380820D01*
X123930537Y-89270506D01*
X123851185Y-89173815D01*
X123754494Y-89094463D01*
X123644180Y-89035498D01*
X123524482Y-88999188D01*
X123435000Y-88990375D01*
X123435000Y-88798061D01*
X123395226Y-88598102D01*
X123317205Y-88409744D01*
X123203937Y-88240226D01*
X123059774Y-88096063D01*
X122890256Y-87982795D01*
X122701898Y-87904774D01*
X122501939Y-87865000D01*
X122298061Y-87865000D01*
X122098102Y-87904774D01*
X121909744Y-87982795D01*
X121740226Y-88096063D01*
X121596063Y-88240226D01*
X121482795Y-88409744D01*
X121404774Y-88598102D01*
X121365000Y-88798061D01*
X121365000Y-88986928D01*
X120900000Y-88986928D01*
X120775518Y-88999188D01*
X120655820Y-89035498D01*
X120545506Y-89094463D01*
X120448815Y-89173815D01*
X120369463Y-89270506D01*
X120310498Y-89380820D01*
X120274188Y-89500518D01*
X120261928Y-89625000D01*
X119858685Y-89625000D01*
X119975799Y-89507886D01*
X120127371Y-89281043D01*
X120231775Y-89028989D01*
X120285000Y-88761411D01*
X120285000Y-88488589D01*
X120231775Y-88221011D01*
X120127371Y-87968957D01*
X119975799Y-87742114D01*
X119782886Y-87549201D01*
X119556043Y-87397629D01*
X119303989Y-87293225D01*
X119036411Y-87240000D01*
X118763589Y-87240000D01*
X118496011Y-87293225D01*
X118243957Y-87397629D01*
X118017114Y-87549201D01*
X117824201Y-87742114D01*
X117672629Y-87968957D01*
X117568225Y-88221011D01*
X117515000Y-88488589D01*
X114360000Y-88488589D01*
X114360000Y-83825000D01*
X120261928Y-83825000D01*
X120274188Y-83949482D01*
X120310498Y-84069180D01*
X120369463Y-84179494D01*
X120448815Y-84276185D01*
X120545506Y-84355537D01*
X120655820Y-84414502D01*
X120775518Y-84450812D01*
X120900000Y-84463072D01*
X121864250Y-84460000D01*
X122023000Y-84301250D01*
X122023000Y-83352000D01*
X120423750Y-83352000D01*
X120265000Y-83510750D01*
X120261928Y-83825000D01*
X114360000Y-83825000D01*
X114360000Y-81488589D01*
X117515000Y-81488589D01*
X117515000Y-81761411D01*
X117568225Y-82028989D01*
X117672629Y-82281043D01*
X117824201Y-82507886D01*
X118017114Y-82700799D01*
X118243957Y-82852371D01*
X118496011Y-82956775D01*
X118763589Y-83010000D01*
X119036411Y-83010000D01*
X119303989Y-82956775D01*
X119556043Y-82852371D01*
X119782886Y-82700799D01*
X119858685Y-82625000D01*
X120261928Y-82625000D01*
X120265000Y-82939250D01*
X120423750Y-83098000D01*
X122023000Y-83098000D01*
X122023000Y-82148750D01*
X122277000Y-82148750D01*
X122277000Y-83098000D01*
X123876250Y-83098000D01*
X124035000Y-82939250D01*
X124038072Y-82625000D01*
X124025812Y-82500518D01*
X123989502Y-82380820D01*
X123930537Y-82270506D01*
X123851185Y-82173815D01*
X123754494Y-82094463D01*
X123644180Y-82035498D01*
X123524482Y-81999188D01*
X123400000Y-81986928D01*
X122435750Y-81990000D01*
X122277000Y-82148750D01*
X122023000Y-82148750D01*
X121864250Y-81990000D01*
X120900000Y-81986928D01*
X120775518Y-81999188D01*
X120655820Y-82035498D01*
X120545506Y-82094463D01*
X120448815Y-82173815D01*
X120369463Y-82270506D01*
X120310498Y-82380820D01*
X120274188Y-82500518D01*
X120261928Y-82625000D01*
X119858685Y-82625000D01*
X119975799Y-82507886D01*
X120127371Y-82281043D01*
X120231775Y-82028989D01*
X120285000Y-81761411D01*
X120285000Y-81488589D01*
X120231775Y-81221011D01*
X120127371Y-80968957D01*
X119975799Y-80742114D01*
X119782886Y-80549201D01*
X119556043Y-80397629D01*
X119441057Y-80350000D01*
X124511928Y-80350000D01*
X124524188Y-80474482D01*
X124560498Y-80594180D01*
X124619463Y-80704494D01*
X124698815Y-80801185D01*
X124795506Y-80880537D01*
X124905820Y-80939502D01*
X125025518Y-80975812D01*
X125150000Y-80988072D01*
X125714250Y-80985000D01*
X125873000Y-80826250D01*
X125873000Y-79627000D01*
X124673750Y-79627000D01*
X124515000Y-79785750D01*
X124511928Y-80350000D01*
X119441057Y-80350000D01*
X119303989Y-80293225D01*
X119036411Y-80240000D01*
X118763589Y-80240000D01*
X118496011Y-80293225D01*
X118243957Y-80397629D01*
X118017114Y-80549201D01*
X117824201Y-80742114D01*
X117672629Y-80968957D01*
X117568225Y-81221011D01*
X117515000Y-81488589D01*
X114360000Y-81488589D01*
X114360000Y-78360000D01*
X124584990Y-78360000D01*
X124560498Y-78405820D01*
%TA.AperFunction,Conductor*%
D18*
G36*
X124560498Y-78405820D02*
G01*
X124524188Y-78525518D01*
X124511928Y-78650000D01*
X124515000Y-79214250D01*
X124673750Y-79373000D01*
X125873000Y-79373000D01*
X125873000Y-79353000D01*
X126127000Y-79353000D01*
X126127000Y-79373000D01*
X126147000Y-79373000D01*
X126147000Y-79627000D01*
X126127000Y-79627000D01*
X126127000Y-80826250D01*
X126285750Y-80985000D01*
X126850000Y-80988072D01*
X126974482Y-80975812D01*
X127094180Y-80939502D01*
X127204494Y-80880537D01*
X127301185Y-80801185D01*
X127380537Y-80704494D01*
X127439502Y-80594180D01*
X127461513Y-80521620D01*
X127593368Y-80653475D01*
X127696647Y-80722484D01*
X126318579Y-82100554D01*
X126286709Y-82126709D01*
X126194626Y-82238914D01*
X126182364Y-82253855D01*
X126104828Y-82398914D01*
X126057082Y-82556312D01*
X126040960Y-82720000D01*
X126045000Y-82761019D01*
X126045001Y-83537633D01*
X126021155Y-83582245D01*
X125976878Y-83728206D01*
X125961928Y-83880000D01*
X125961928Y-84220000D01*
X125976878Y-84371794D01*
X126021155Y-84517755D01*
X126045000Y-84562367D01*
X126045001Y-84676417D01*
X126000775Y-84759158D01*
X125956782Y-84904181D01*
X125941928Y-85055000D01*
X125941928Y-85325000D01*
X125956782Y-85475819D01*
X126000775Y-85620842D01*
X126043086Y-85700000D01*
X126000775Y-85779158D01*
X125956782Y-85924181D01*
X125941928Y-86075000D01*
X125941928Y-86259012D01*
X125870000Y-86251928D01*
X125530000Y-86251928D01*
X125378206Y-86266878D01*
X125232245Y-86311155D01*
X125225052Y-86315000D01*
X125162366Y-86315000D01*
X125117755Y-86291155D01*
X124971794Y-86246878D01*
X124820000Y-86231928D01*
X124480000Y-86231928D01*
X124328206Y-86246878D01*
X124182245Y-86291155D01*
X124047726Y-86363057D01*
X124038072Y-86370980D01*
X124038072Y-85625000D01*
X124025812Y-85500518D01*
X124010481Y-85449980D01*
X124117205Y-85290256D01*
X124195226Y-85101898D01*
X124235000Y-84901939D01*
X124235000Y-84698061D01*
X124195226Y-84498102D01*
X124136812Y-84357077D01*
X125001935Y-84357077D01*
X125013625Y-84481613D01*
X125049386Y-84601476D01*
X125107844Y-84712059D01*
X125186753Y-84809113D01*
X125283079Y-84888908D01*
X125393122Y-84948377D01*
X125512652Y-84985235D01*
X125634250Y-84995000D01*
X125793000Y-84836250D01*
X125793000Y-84177000D01*
X125163750Y-84177000D01*
X125005000Y-84335750D01*
X125001935Y-84357077D01*
X124136812Y-84357077D01*
X124117205Y-84309744D01*
X124003937Y-84140226D01*
X123969783Y-84106072D01*
X123989502Y-84069180D01*
X124025812Y-83949482D01*
X124038072Y-83825000D01*
X124037270Y-83742923D01*
X125001935Y-83742923D01*
X125005000Y-83764250D01*
X125163750Y-83923000D01*
X125793000Y-83923000D01*
X125793000Y-83263750D01*
X125634250Y-83105000D01*
X125512652Y-83114765D01*
X125393122Y-83151623D01*
X125283079Y-83211092D01*
X125186753Y-83290887D01*
X125107844Y-83387941D01*
X125049386Y-83498524D01*
X125013625Y-83618387D01*
X125001935Y-83742923D01*
X124037270Y-83742923D01*
X124035000Y-83510750D01*
X123876250Y-83352000D01*
X122277000Y-83352000D01*
X122277000Y-84301250D01*
X122283876Y-84308126D01*
X122282795Y-84309744D01*
X122204774Y-84498102D01*
X122165000Y-84698061D01*
X122165000Y-84901939D01*
X122181905Y-84986928D01*
X120900000Y-84986928D01*
X120775518Y-84999188D01*
X120655820Y-85035498D01*
X120545506Y-85094463D01*
X120448815Y-85173815D01*
X120369463Y-85270506D01*
X120310498Y-85380820D01*
X120274188Y-85500518D01*
X120261928Y-85625000D01*
X120261928Y-86825000D01*
X120274188Y-86949482D01*
X120310498Y-87069180D01*
X120369463Y-87179494D01*
X120448815Y-87276185D01*
X120545506Y-87355537D01*
X120655820Y-87414502D01*
X120775518Y-87450812D01*
X120900000Y-87463072D01*
X123400000Y-87463072D01*
X123524482Y-87450812D01*
X123644180Y-87414502D01*
X123710689Y-87378952D01*
X123716878Y-87441794D01*
X123756828Y-87573491D01*
X123751623Y-87583122D01*
X123714765Y-87702652D01*
X123705000Y-87824250D01*
X123863750Y-87983000D01*
X124133892Y-87983000D01*
X124182245Y-88008845D01*
X124328206Y-88053122D01*
X124480000Y-88068072D01*
X124820000Y-88068072D01*
X124971794Y-88053122D01*
X125117755Y-88008845D01*
X125128690Y-88003000D01*
X125183892Y-88003000D01*
X125232245Y-88028845D01*
X125378206Y-88073122D01*
X125530000Y-88088072D01*
X125650000Y-88088072D01*
X125650000Y-88277000D01*
X125573000Y-88277000D01*
X125573000Y-88257000D01*
X125456250Y-88257000D01*
X125436250Y-88237000D01*
X124777000Y-88237000D01*
X124777000Y-88257000D01*
X124523000Y-88257000D01*
X124523000Y-88237000D01*
X123863750Y-88237000D01*
X123705000Y-88395750D01*
X123714765Y-88517348D01*
X123751623Y-88636878D01*
X123811092Y-88746921D01*
X123890887Y-88843247D01*
X123987941Y-88922156D01*
X124098524Y-88980614D01*
X124218387Y-89016375D01*
X124342923Y-89028065D01*
X124356170Y-89026161D01*
X124346928Y-89120000D01*
X124346928Y-90395000D01*
X124350000Y-90426192D01*
X124350001Y-94373000D01*
X124130882Y-94373000D01*
X124138072Y-94300000D01*
X124135000Y-94073250D01*
X123976250Y-93914500D01*
X122927000Y-93914500D01*
X122927000Y-93934500D01*
X122673000Y-93934500D01*
X122673000Y-93914500D01*
X121623750Y-93914500D01*
X121465000Y-94073250D01*
X121461928Y-94300000D01*
X121469118Y-94373000D01*
X114360000Y-94373000D01*
X114360000Y-93275000D01*
X121461928Y-93275000D01*
X121465000Y-93501750D01*
X121623750Y-93660500D01*
X122673000Y-93660500D01*
X122673000Y-92798750D01*
X122927000Y-92798750D01*
X122927000Y-93660500D01*
X123976250Y-93660500D01*
X124135000Y-93501750D01*
X124138072Y-93275000D01*
X124125812Y-93150518D01*
X124089502Y-93030820D01*
X124030537Y-92920506D01*
X123951185Y-92823815D01*
X123854494Y-92744463D01*
X123744180Y-92685498D01*
X123624482Y-92649188D01*
X123500000Y-92636928D01*
X123085750Y-92640000D01*
X122927000Y-92798750D01*
X122673000Y-92798750D01*
X122514250Y-92640000D01*
X122100000Y-92636928D01*
X121975518Y-92649188D01*
X121855820Y-92685498D01*
X121745506Y-92744463D01*
X121648815Y-92823815D01*
X121569463Y-92920506D01*
X121510498Y-93030820D01*
X121474188Y-93150518D01*
X121461928Y-93275000D01*
X114360000Y-93275000D01*
X114360000Y-92559132D01*
X114400000Y-92563072D01*
X116900000Y-92563072D01*
X117024482Y-92550812D01*
X117144180Y-92514502D01*
X117254494Y-92455537D01*
X117351185Y-92376185D01*
X117430537Y-92279494D01*
X117489502Y-92169180D01*
X117525812Y-92049482D01*
X117538072Y-91925000D01*
X117538072Y-90725000D01*
X117525812Y-90600518D01*
X117489502Y-90480820D01*
X117430537Y-90370506D01*
X117351185Y-90273815D01*
X117254494Y-90194463D01*
X117144180Y-90135498D01*
X117024482Y-90099188D01*
X116900000Y-90086928D01*
X114400000Y-90086928D01*
X114360000Y-90090868D01*
X114360000Y-88488589D01*
X117515000Y-88488589D01*
X117515000Y-88761411D01*
X117568225Y-89028989D01*
X117672629Y-89281043D01*
X117824201Y-89507886D01*
X118017114Y-89700799D01*
X118243957Y-89852371D01*
X118496011Y-89956775D01*
X118763589Y-90010000D01*
X119036411Y-90010000D01*
X119303989Y-89956775D01*
X119556043Y-89852371D01*
X119782886Y-89700799D01*
X119858685Y-89625000D01*
X120261928Y-89625000D01*
X120261928Y-90825000D01*
X120274188Y-90949482D01*
X120310498Y-91069180D01*
X120369463Y-91179494D01*
X120448815Y-91276185D01*
X120545506Y-91355537D01*
X120655820Y-91414502D01*
X120775518Y-91450812D01*
X120900000Y-91463072D01*
X123400000Y-91463072D01*
X123524482Y-91450812D01*
X123644180Y-91414502D01*
X123754494Y-91355537D01*
X123851185Y-91276185D01*
X123930537Y-91179494D01*
X123989502Y-91069180D01*
X124025812Y-90949482D01*
X124038072Y-90825000D01*
X124038072Y-89625000D01*
X124025812Y-89500518D01*
X123989502Y-89380820D01*
X123930537Y-89270506D01*
X123851185Y-89173815D01*
X123754494Y-89094463D01*
X123644180Y-89035498D01*
X123524482Y-88999188D01*
X123435000Y-88990375D01*
X123435000Y-88798061D01*
X123395226Y-88598102D01*
X123317205Y-88409744D01*
X123203937Y-88240226D01*
X123059774Y-88096063D01*
X122890256Y-87982795D01*
X122701898Y-87904774D01*
X122501939Y-87865000D01*
X122298061Y-87865000D01*
X122098102Y-87904774D01*
X121909744Y-87982795D01*
X121740226Y-88096063D01*
X121596063Y-88240226D01*
X121482795Y-88409744D01*
X121404774Y-88598102D01*
X121365000Y-88798061D01*
X121365000Y-88986928D01*
X120900000Y-88986928D01*
X120775518Y-88999188D01*
X120655820Y-89035498D01*
X120545506Y-89094463D01*
X120448815Y-89173815D01*
X120369463Y-89270506D01*
X120310498Y-89380820D01*
X120274188Y-89500518D01*
X120261928Y-89625000D01*
X119858685Y-89625000D01*
X119975799Y-89507886D01*
X120127371Y-89281043D01*
X120231775Y-89028989D01*
X120285000Y-88761411D01*
X120285000Y-88488589D01*
X120231775Y-88221011D01*
X120127371Y-87968957D01*
X119975799Y-87742114D01*
X119782886Y-87549201D01*
X119556043Y-87397629D01*
X119303989Y-87293225D01*
X119036411Y-87240000D01*
X118763589Y-87240000D01*
X118496011Y-87293225D01*
X118243957Y-87397629D01*
X118017114Y-87549201D01*
X117824201Y-87742114D01*
X117672629Y-87968957D01*
X117568225Y-88221011D01*
X117515000Y-88488589D01*
X114360000Y-88488589D01*
X114360000Y-83825000D01*
X120261928Y-83825000D01*
X120274188Y-83949482D01*
X120310498Y-84069180D01*
X120369463Y-84179494D01*
X120448815Y-84276185D01*
X120545506Y-84355537D01*
X120655820Y-84414502D01*
X120775518Y-84450812D01*
X120900000Y-84463072D01*
X121864250Y-84460000D01*
X122023000Y-84301250D01*
X122023000Y-83352000D01*
X120423750Y-83352000D01*
X120265000Y-83510750D01*
X120261928Y-83825000D01*
X114360000Y-83825000D01*
X114360000Y-81488589D01*
X117515000Y-81488589D01*
X117515000Y-81761411D01*
X117568225Y-82028989D01*
X117672629Y-82281043D01*
X117824201Y-82507886D01*
X118017114Y-82700799D01*
X118243957Y-82852371D01*
X118496011Y-82956775D01*
X118763589Y-83010000D01*
X119036411Y-83010000D01*
X119303989Y-82956775D01*
X119556043Y-82852371D01*
X119782886Y-82700799D01*
X119858685Y-82625000D01*
X120261928Y-82625000D01*
X120265000Y-82939250D01*
X120423750Y-83098000D01*
X122023000Y-83098000D01*
X122023000Y-82148750D01*
X122277000Y-82148750D01*
X122277000Y-83098000D01*
X123876250Y-83098000D01*
X124035000Y-82939250D01*
X124038072Y-82625000D01*
X124025812Y-82500518D01*
X123989502Y-82380820D01*
X123930537Y-82270506D01*
X123851185Y-82173815D01*
X123754494Y-82094463D01*
X123644180Y-82035498D01*
X123524482Y-81999188D01*
X123400000Y-81986928D01*
X122435750Y-81990000D01*
X122277000Y-82148750D01*
X122023000Y-82148750D01*
X121864250Y-81990000D01*
X120900000Y-81986928D01*
X120775518Y-81999188D01*
X120655820Y-82035498D01*
X120545506Y-82094463D01*
X120448815Y-82173815D01*
X120369463Y-82270506D01*
X120310498Y-82380820D01*
X120274188Y-82500518D01*
X120261928Y-82625000D01*
X119858685Y-82625000D01*
X119975799Y-82507886D01*
X120127371Y-82281043D01*
X120231775Y-82028989D01*
X120285000Y-81761411D01*
X120285000Y-81488589D01*
X120231775Y-81221011D01*
X120127371Y-80968957D01*
X119975799Y-80742114D01*
X119782886Y-80549201D01*
X119556043Y-80397629D01*
X119441057Y-80350000D01*
X124511928Y-80350000D01*
X124524188Y-80474482D01*
X124560498Y-80594180D01*
X124619463Y-80704494D01*
X124698815Y-80801185D01*
X124795506Y-80880537D01*
X124905820Y-80939502D01*
X125025518Y-80975812D01*
X125150000Y-80988072D01*
X125714250Y-80985000D01*
X125873000Y-80826250D01*
X125873000Y-79627000D01*
X124673750Y-79627000D01*
X124515000Y-79785750D01*
X124511928Y-80350000D01*
X119441057Y-80350000D01*
X119303989Y-80293225D01*
X119036411Y-80240000D01*
X118763589Y-80240000D01*
X118496011Y-80293225D01*
X118243957Y-80397629D01*
X118017114Y-80549201D01*
X117824201Y-80742114D01*
X117672629Y-80968957D01*
X117568225Y-81221011D01*
X117515000Y-81488589D01*
X114360000Y-81488589D01*
X114360000Y-78360000D01*
X124584990Y-78360000D01*
X124560498Y-78405820D01*
G37*
%TD.AperFunction*%
D17*
X132240000Y-82732418D02*
X132240001Y-82732428D01*
X132240001Y-92473000D01*
X131870000Y-92473000D01*
X131870000Y-92006019D01*
X131874040Y-91965000D01*
X131870000Y-91923981D01*
X131870000Y-90426190D01*
X131873072Y-90395000D01*
X131873072Y-89120000D01*
X131870000Y-89088810D01*
X131870000Y-88711362D01*
X131920180Y-88670180D01*
X132016943Y-88552274D01*
X132088845Y-88417755D01*
X132133122Y-88271794D01*
X132148072Y-88120000D01*
X132148072Y-87840000D01*
X132133122Y-87688206D01*
X132093172Y-87556509D01*
X132098377Y-87546878D01*
X132135235Y-87427348D01*
X132145000Y-87305750D01*
X131986250Y-87147000D01*
X131716108Y-87147000D01*
X131667755Y-87121155D01*
X131521794Y-87076878D01*
X131370000Y-87061928D01*
X131112916Y-87061928D01*
X131118065Y-87007077D01*
X131115000Y-86985750D01*
X131053000Y-86923750D01*
X131053000Y-86893000D01*
X131073000Y-86893000D01*
X131073000Y-86456250D01*
X131115000Y-86414250D01*
X131118065Y-86392923D01*
X131106375Y-86268387D01*
X131104992Y-86263750D01*
X131327000Y-86263750D01*
X131327000Y-86893000D01*
X131986250Y-86893000D01*
X132145000Y-86734250D01*
X132135235Y-86612652D01*
X132098377Y-86493122D01*
X132038908Y-86383079D01*
X131959113Y-86286753D01*
X131862059Y-86207844D01*
X131751476Y-86149386D01*
X131631613Y-86113625D01*
X131507077Y-86101935D01*
X131485750Y-86105000D01*
X131327000Y-86263750D01*
X131104992Y-86263750D01*
X131070614Y-86148524D01*
X131012156Y-86037941D01*
X130933247Y-85940887D01*
X130836921Y-85861092D01*
X130726878Y-85801623D01*
X130607348Y-85764765D01*
X130485750Y-85755000D01*
X130327000Y-85913750D01*
X130327000Y-86446164D01*
X130301623Y-86493122D01*
X130264765Y-86612652D01*
X130255000Y-86734250D01*
X130347750Y-86827000D01*
X130327000Y-86827000D01*
X130327000Y-86847000D01*
X130158072Y-86847000D01*
X130158072Y-86530000D01*
X130143122Y-86378206D01*
X130098845Y-86232245D01*
X130073000Y-86183892D01*
X130073000Y-85913750D01*
X129914250Y-85755000D01*
X129792652Y-85764765D01*
X129673122Y-85801623D01*
X129663491Y-85806828D01*
X129531794Y-85766878D01*
X129380000Y-85751928D01*
X129100000Y-85751928D01*
X128948206Y-85766878D01*
X128899941Y-85781519D01*
X128899225Y-85779158D01*
X128856914Y-85700000D01*
X128899225Y-85620842D01*
X128943218Y-85475819D01*
X128958072Y-85325000D01*
X128958072Y-85055000D01*
X128943218Y-84904181D01*
X128899225Y-84759158D01*
X128855000Y-84676418D01*
X128855000Y-84562366D01*
X128878845Y-84517755D01*
X128923122Y-84371794D01*
X128938072Y-84220000D01*
X128938072Y-84177000D01*
X129107000Y-84177000D01*
X129107000Y-84836250D01*
X129265750Y-84995000D01*
X129387348Y-84985235D01*
X129506878Y-84948377D01*
X129616921Y-84888908D01*
X129713247Y-84809113D01*
X129792156Y-84712059D01*
X129850614Y-84601476D01*
X129886375Y-84481613D01*
X129898065Y-84357077D01*
X129895000Y-84335750D01*
X129736250Y-84177000D01*
X129107000Y-84177000D01*
X128938072Y-84177000D01*
X128938072Y-83880000D01*
X128923122Y-83728206D01*
X128878845Y-83582245D01*
X128855000Y-83537634D01*
X128855000Y-83263750D01*
X129107000Y-83263750D01*
X129107000Y-83923000D01*
X129736250Y-83923000D01*
X129895000Y-83764250D01*
X129898065Y-83742923D01*
X129886375Y-83618387D01*
X129850614Y-83498524D01*
X129792156Y-83387941D01*
X129713247Y-83290887D01*
X129616921Y-83211092D01*
X129506878Y-83151623D01*
X129387348Y-83114765D01*
X129265750Y-83105000D01*
X129107000Y-83263750D01*
X128855000Y-83263750D01*
X128855000Y-82905867D01*
X130802061Y-80958807D01*
X130933740Y-80985000D01*
X131226260Y-80985000D01*
X131513158Y-80927932D01*
X131783411Y-80815990D01*
X132026632Y-80653475D01*
X132233475Y-80446632D01*
X132240000Y-80436866D01*
X132240000Y-82732418D01*
%TA.AperFunction,Conductor*%
D18*
G36*
X132240000Y-82732418D02*
G01*
X132240001Y-82732428D01*
X132240001Y-92473000D01*
X131870000Y-92473000D01*
X131870000Y-92006019D01*
X131874040Y-91965000D01*
X131870000Y-91923981D01*
X131870000Y-90426190D01*
X131873072Y-90395000D01*
X131873072Y-89120000D01*
X131870000Y-89088810D01*
X131870000Y-88711362D01*
X131920180Y-88670180D01*
X132016943Y-88552274D01*
X132088845Y-88417755D01*
X132133122Y-88271794D01*
X132148072Y-88120000D01*
X132148072Y-87840000D01*
X132133122Y-87688206D01*
X132093172Y-87556509D01*
X132098377Y-87546878D01*
X132135235Y-87427348D01*
X132145000Y-87305750D01*
X131986250Y-87147000D01*
X131716108Y-87147000D01*
X131667755Y-87121155D01*
X131521794Y-87076878D01*
X131370000Y-87061928D01*
X131112916Y-87061928D01*
X131118065Y-87007077D01*
X131115000Y-86985750D01*
X131053000Y-86923750D01*
X131053000Y-86893000D01*
X131073000Y-86893000D01*
X131073000Y-86456250D01*
X131115000Y-86414250D01*
X131118065Y-86392923D01*
X131106375Y-86268387D01*
X131104992Y-86263750D01*
X131327000Y-86263750D01*
X131327000Y-86893000D01*
X131986250Y-86893000D01*
X132145000Y-86734250D01*
X132135235Y-86612652D01*
X132098377Y-86493122D01*
X132038908Y-86383079D01*
X131959113Y-86286753D01*
X131862059Y-86207844D01*
X131751476Y-86149386D01*
X131631613Y-86113625D01*
X131507077Y-86101935D01*
X131485750Y-86105000D01*
X131327000Y-86263750D01*
X131104992Y-86263750D01*
X131070614Y-86148524D01*
X131012156Y-86037941D01*
X130933247Y-85940887D01*
X130836921Y-85861092D01*
X130726878Y-85801623D01*
X130607348Y-85764765D01*
X130485750Y-85755000D01*
X130327000Y-85913750D01*
X130327000Y-86446164D01*
X130301623Y-86493122D01*
X130264765Y-86612652D01*
X130255000Y-86734250D01*
X130347750Y-86827000D01*
X130327000Y-86827000D01*
X130327000Y-86847000D01*
X130158072Y-86847000D01*
X130158072Y-86530000D01*
X130143122Y-86378206D01*
X130098845Y-86232245D01*
X130073000Y-86183892D01*
X130073000Y-85913750D01*
X129914250Y-85755000D01*
X129792652Y-85764765D01*
X129673122Y-85801623D01*
X129663491Y-85806828D01*
X129531794Y-85766878D01*
X129380000Y-85751928D01*
X129100000Y-85751928D01*
X128948206Y-85766878D01*
X128899941Y-85781519D01*
X128899225Y-85779158D01*
X128856914Y-85700000D01*
X128899225Y-85620842D01*
X128943218Y-85475819D01*
X128958072Y-85325000D01*
X128958072Y-85055000D01*
X128943218Y-84904181D01*
X128899225Y-84759158D01*
X128855000Y-84676418D01*
X128855000Y-84562366D01*
X128878845Y-84517755D01*
X128923122Y-84371794D01*
X128938072Y-84220000D01*
X128938072Y-84177000D01*
X129107000Y-84177000D01*
X129107000Y-84836250D01*
X129265750Y-84995000D01*
X129387348Y-84985235D01*
X129506878Y-84948377D01*
X129616921Y-84888908D01*
X129713247Y-84809113D01*
X129792156Y-84712059D01*
X129850614Y-84601476D01*
X129886375Y-84481613D01*
X129898065Y-84357077D01*
X129895000Y-84335750D01*
X129736250Y-84177000D01*
X129107000Y-84177000D01*
X128938072Y-84177000D01*
X128938072Y-83880000D01*
X128923122Y-83728206D01*
X128878845Y-83582245D01*
X128855000Y-83537634D01*
X128855000Y-83263750D01*
X129107000Y-83263750D01*
X129107000Y-83923000D01*
X129736250Y-83923000D01*
X129895000Y-83764250D01*
X129898065Y-83742923D01*
X129886375Y-83618387D01*
X129850614Y-83498524D01*
X129792156Y-83387941D01*
X129713247Y-83290887D01*
X129616921Y-83211092D01*
X129506878Y-83151623D01*
X129387348Y-83114765D01*
X129265750Y-83105000D01*
X129107000Y-83263750D01*
X128855000Y-83263750D01*
X128855000Y-82905867D01*
X130802061Y-80958807D01*
X130933740Y-80985000D01*
X131226260Y-80985000D01*
X131513158Y-80927932D01*
X131783411Y-80815990D01*
X132026632Y-80653475D01*
X132233475Y-80446632D01*
X132240000Y-80436866D01*
X132240000Y-82732418D01*
G37*
%TD.AperFunction*%
D17*
X129607998Y-91130000D02*
X129503250Y-91130000D01*
X129607998Y-91025252D01*
X129607998Y-91130000D01*
%TA.AperFunction,Conductor*%
D18*
G36*
X129607998Y-91130000D02*
G01*
X129503250Y-91130000D01*
X129607998Y-91025252D01*
X129607998Y-91130000D01*
G37*
%TD.AperFunction*%
%TD*%
D17*
%TO.N,GND*%
X121461928Y-95100000D02*
X121465000Y-95326750D01*
X121623750Y-95485500D01*
X122673000Y-95485500D01*
X122673000Y-95465500D01*
X122927000Y-95465500D01*
X122927000Y-95485500D01*
X123976250Y-95485500D01*
X124135000Y-95326750D01*
X124138072Y-95100000D01*
X124130882Y-95027000D01*
X124348848Y-95027000D01*
X124350000Y-95196750D01*
X124508750Y-95355500D01*
X124996928Y-95355500D01*
X124996928Y-95609500D01*
X124508750Y-95609500D01*
X124350000Y-95768250D01*
X124347000Y-96210400D01*
X124357386Y-96335052D01*
X124391891Y-96455282D01*
X124406075Y-96482807D01*
X124264181Y-96496782D01*
X124119158Y-96540775D01*
X123985504Y-96612214D01*
X123868356Y-96708356D01*
X123772214Y-96825504D01*
X123700775Y-96959158D01*
X123656782Y-97104181D01*
X123641928Y-97255000D01*
X123641928Y-97525000D01*
X123656782Y-97675819D01*
X123700775Y-97820842D01*
X123715584Y-97848549D01*
X123693559Y-97888558D01*
X123655774Y-98007798D01*
X123645000Y-98124250D01*
X123803750Y-98283000D01*
X124263462Y-98283000D01*
X124264181Y-98283218D01*
X124415000Y-98298072D01*
X124731060Y-98298072D01*
X124473000Y-98556133D01*
X124473000Y-98537000D01*
X123803750Y-98537000D01*
X123645000Y-98695750D01*
X123655774Y-98812202D01*
X123672505Y-98865000D01*
X122481007Y-98865000D01*
X122439999Y-98860961D01*
X122398991Y-98865000D01*
X122398981Y-98865000D01*
X122276311Y-98877082D01*
X122118913Y-98924828D01*
X121973854Y-99002364D01*
X121846709Y-99106709D01*
X121820561Y-99138571D01*
X121217940Y-99741193D01*
X121086260Y-99715000D01*
X120793740Y-99715000D01*
X120506842Y-99772068D01*
X120236589Y-99884010D01*
X119993368Y-100046525D01*
X119861513Y-100178380D01*
X119839502Y-100105820D01*
X119780537Y-99995506D01*
X119701185Y-99898815D01*
X119604494Y-99819463D01*
X119494180Y-99760498D01*
X119374482Y-99724188D01*
X119250000Y-99711928D01*
X117550000Y-99711928D01*
X117425518Y-99724188D01*
X117305820Y-99760498D01*
X117195506Y-99819463D01*
X117098815Y-99898815D01*
X117019463Y-99995506D01*
X116960498Y-100105820D01*
X116924188Y-100225518D01*
X116911928Y-100350000D01*
X116911928Y-102040000D01*
X114360000Y-102040000D01*
X114360000Y-96125000D01*
X121461928Y-96125000D01*
X121474188Y-96249482D01*
X121510498Y-96369180D01*
X121569463Y-96479494D01*
X121648815Y-96576185D01*
X121745506Y-96655537D01*
X121855820Y-96714502D01*
X121975518Y-96750812D01*
X122100000Y-96763072D01*
X122514250Y-96760000D01*
X122673000Y-96601250D01*
X122673000Y-95739500D01*
X122927000Y-95739500D01*
X122927000Y-96601250D01*
X123085750Y-96760000D01*
X123500000Y-96763072D01*
X123624482Y-96750812D01*
X123744180Y-96714502D01*
X123854494Y-96655537D01*
X123951185Y-96576185D01*
X124030537Y-96479494D01*
X124089502Y-96369180D01*
X124125812Y-96249482D01*
X124138072Y-96125000D01*
X124135000Y-95898250D01*
X123976250Y-95739500D01*
X122927000Y-95739500D01*
X122673000Y-95739500D01*
X121623750Y-95739500D01*
X121465000Y-95898250D01*
X121461928Y-96125000D01*
X114360000Y-96125000D01*
X114360000Y-95027000D01*
X121469118Y-95027000D01*
X121461928Y-95100000D01*
%TA.AperFunction,Conductor*%
D18*
G36*
X121461928Y-95100000D02*
G01*
X121465000Y-95326750D01*
X121623750Y-95485500D01*
X122673000Y-95485500D01*
X122673000Y-95465500D01*
X122927000Y-95465500D01*
X122927000Y-95485500D01*
X123976250Y-95485500D01*
X124135000Y-95326750D01*
X124138072Y-95100000D01*
X124130882Y-95027000D01*
X124348848Y-95027000D01*
X124350000Y-95196750D01*
X124508750Y-95355500D01*
X124996928Y-95355500D01*
X124996928Y-95609500D01*
X124508750Y-95609500D01*
X124350000Y-95768250D01*
X124347000Y-96210400D01*
X124357386Y-96335052D01*
X124391891Y-96455282D01*
X124406075Y-96482807D01*
X124264181Y-96496782D01*
X124119158Y-96540775D01*
X123985504Y-96612214D01*
X123868356Y-96708356D01*
X123772214Y-96825504D01*
X123700775Y-96959158D01*
X123656782Y-97104181D01*
X123641928Y-97255000D01*
X123641928Y-97525000D01*
X123656782Y-97675819D01*
X123700775Y-97820842D01*
X123715584Y-97848549D01*
X123693559Y-97888558D01*
X123655774Y-98007798D01*
X123645000Y-98124250D01*
X123803750Y-98283000D01*
X124263462Y-98283000D01*
X124264181Y-98283218D01*
X124415000Y-98298072D01*
X124731060Y-98298072D01*
X124473000Y-98556133D01*
X124473000Y-98537000D01*
X123803750Y-98537000D01*
X123645000Y-98695750D01*
X123655774Y-98812202D01*
X123672505Y-98865000D01*
X122481007Y-98865000D01*
X122439999Y-98860961D01*
X122398991Y-98865000D01*
X122398981Y-98865000D01*
X122276311Y-98877082D01*
X122118913Y-98924828D01*
X121973854Y-99002364D01*
X121846709Y-99106709D01*
X121820561Y-99138571D01*
X121217940Y-99741193D01*
X121086260Y-99715000D01*
X120793740Y-99715000D01*
X120506842Y-99772068D01*
X120236589Y-99884010D01*
X119993368Y-100046525D01*
X119861513Y-100178380D01*
X119839502Y-100105820D01*
X119780537Y-99995506D01*
X119701185Y-99898815D01*
X119604494Y-99819463D01*
X119494180Y-99760498D01*
X119374482Y-99724188D01*
X119250000Y-99711928D01*
X117550000Y-99711928D01*
X117425518Y-99724188D01*
X117305820Y-99760498D01*
X117195506Y-99819463D01*
X117098815Y-99898815D01*
X117019463Y-99995506D01*
X116960498Y-100105820D01*
X116924188Y-100225518D01*
X116911928Y-100350000D01*
X116911928Y-102040000D01*
X114360000Y-102040000D01*
X114360000Y-96125000D01*
X121461928Y-96125000D01*
X121474188Y-96249482D01*
X121510498Y-96369180D01*
X121569463Y-96479494D01*
X121648815Y-96576185D01*
X121745506Y-96655537D01*
X121855820Y-96714502D01*
X121975518Y-96750812D01*
X122100000Y-96763072D01*
X122514250Y-96760000D01*
X122673000Y-96601250D01*
X122673000Y-95739500D01*
X122927000Y-95739500D01*
X122927000Y-96601250D01*
X123085750Y-96760000D01*
X123500000Y-96763072D01*
X123624482Y-96750812D01*
X123744180Y-96714502D01*
X123854494Y-96655537D01*
X123951185Y-96576185D01*
X124030537Y-96479494D01*
X124089502Y-96369180D01*
X124125812Y-96249482D01*
X124138072Y-96125000D01*
X124135000Y-95898250D01*
X123976250Y-95739500D01*
X122927000Y-95739500D01*
X122673000Y-95739500D01*
X121623750Y-95739500D01*
X121465000Y-95898250D01*
X121461928Y-96125000D01*
X114360000Y-96125000D01*
X114360000Y-95027000D01*
X121469118Y-95027000D01*
X121461928Y-95100000D01*
G37*
%TD.AperFunction*%
D17*
X128687000Y-101073000D02*
X128707000Y-101073000D01*
X128707000Y-101327000D01*
X128687000Y-101327000D01*
X128687000Y-101347000D01*
X128433000Y-101347000D01*
X128433000Y-101327000D01*
X128413000Y-101327000D01*
X128413000Y-101073000D01*
X128433000Y-101073000D01*
X128433000Y-101053000D01*
X128687000Y-101053000D01*
X128687000Y-101073000D01*
%TA.AperFunction,Conductor*%
D18*
G36*
X128687000Y-101073000D02*
G01*
X128707000Y-101073000D01*
X128707000Y-101327000D01*
X128687000Y-101327000D01*
X128687000Y-101347000D01*
X128433000Y-101347000D01*
X128433000Y-101327000D01*
X128413000Y-101327000D01*
X128413000Y-101073000D01*
X128433000Y-101073000D01*
X128433000Y-101053000D01*
X128687000Y-101053000D01*
X128687000Y-101073000D01*
G37*
%TD.AperFunction*%
D17*
X130632245Y-98278845D02*
X130778206Y-98323122D01*
X130930000Y-98338072D01*
X131114999Y-98338072D01*
X131115000Y-99704132D01*
X131104132Y-99715000D01*
X130953740Y-99715000D01*
X130666842Y-99772068D01*
X130396589Y-99884010D01*
X130153368Y-100046525D01*
X129946525Y-100253368D01*
X129824805Y-100435534D01*
X129755178Y-100318645D01*
X129560269Y-100102412D01*
X129452596Y-100022100D01*
X129596028Y-99926262D01*
X129726262Y-99796028D01*
X129828586Y-99642889D01*
X129899068Y-99472729D01*
X129935000Y-99292089D01*
X129935000Y-99144250D01*
X130085750Y-99295000D01*
X130107077Y-99298065D01*
X130231613Y-99286375D01*
X130351476Y-99250614D01*
X130450000Y-99198531D01*
X130548524Y-99250614D01*
X130668387Y-99286375D01*
X130792923Y-99298065D01*
X130814250Y-99295000D01*
X130973000Y-99136250D01*
X130973000Y-98507000D01*
X129927000Y-98507000D01*
X129927000Y-98527000D01*
X129920000Y-98527000D01*
X129920000Y-98338072D01*
X129970000Y-98338072D01*
X130121794Y-98323122D01*
X130267755Y-98278845D01*
X130316108Y-98253000D01*
X130583892Y-98253000D01*
X130632245Y-98278845D01*
%TA.AperFunction,Conductor*%
D18*
G36*
X130632245Y-98278845D02*
G01*
X130778206Y-98323122D01*
X130930000Y-98338072D01*
X131114999Y-98338072D01*
X131115000Y-99704132D01*
X131104132Y-99715000D01*
X130953740Y-99715000D01*
X130666842Y-99772068D01*
X130396589Y-99884010D01*
X130153368Y-100046525D01*
X129946525Y-100253368D01*
X129824805Y-100435534D01*
X129755178Y-100318645D01*
X129560269Y-100102412D01*
X129452596Y-100022100D01*
X129596028Y-99926262D01*
X129726262Y-99796028D01*
X129828586Y-99642889D01*
X129899068Y-99472729D01*
X129935000Y-99292089D01*
X129935000Y-99144250D01*
X130085750Y-99295000D01*
X130107077Y-99298065D01*
X130231613Y-99286375D01*
X130351476Y-99250614D01*
X130450000Y-99198531D01*
X130548524Y-99250614D01*
X130668387Y-99286375D01*
X130792923Y-99298065D01*
X130814250Y-99295000D01*
X130973000Y-99136250D01*
X130973000Y-98507000D01*
X129927000Y-98507000D01*
X129927000Y-98527000D01*
X129920000Y-98527000D01*
X129920000Y-98338072D01*
X129970000Y-98338072D01*
X130121794Y-98323122D01*
X130267755Y-98278845D01*
X130316108Y-98253000D01*
X130583892Y-98253000D01*
X130632245Y-98278845D01*
G37*
%TD.AperFunction*%
D17*
X130200001Y-94156751D02*
X130153250Y-94110000D01*
X130051117Y-94121132D01*
X130016045Y-94132350D01*
X129978991Y-94121110D01*
X129835000Y-94106928D01*
X129635000Y-94106928D01*
X129491009Y-94121110D01*
X129410000Y-94145684D01*
X129328991Y-94121110D01*
X129185000Y-94106928D01*
X128985000Y-94106928D01*
X128841009Y-94121110D01*
X128803955Y-94132350D01*
X128768883Y-94121132D01*
X128666750Y-94110000D01*
X128508000Y-94268750D01*
X128508000Y-94286259D01*
X128463104Y-94323104D01*
X128435000Y-94357349D01*
X128406896Y-94323104D01*
X128362000Y-94286259D01*
X128362000Y-94268750D01*
X128203250Y-94110000D01*
X128101117Y-94121132D01*
X128066045Y-94132350D01*
X128028991Y-94121110D01*
X127885000Y-94106928D01*
X127685000Y-94106928D01*
X127541009Y-94121110D01*
X127460000Y-94145684D01*
X127378991Y-94121110D01*
X127235000Y-94106928D01*
X127035000Y-94106928D01*
X126891009Y-94121110D01*
X126810000Y-94145684D01*
X126728991Y-94121110D01*
X126585000Y-94106928D01*
X126385000Y-94106928D01*
X126241009Y-94121110D01*
X126160000Y-94145684D01*
X126078991Y-94121110D01*
X125935000Y-94106928D01*
X125735000Y-94106928D01*
X125591009Y-94121110D01*
X125553955Y-94132350D01*
X125518883Y-94121132D01*
X125416750Y-94110000D01*
X125258000Y-94268750D01*
X125258000Y-94286259D01*
X125213104Y-94323104D01*
X125121316Y-94434949D01*
X125112000Y-94452378D01*
X125112000Y-94268750D01*
X124953250Y-94110000D01*
X124927000Y-94112861D01*
X124927000Y-93127000D01*
X130200001Y-93127000D01*
X130200001Y-94156751D01*
%TA.AperFunction,Conductor*%
D18*
G36*
X130200001Y-94156751D02*
G01*
X130153250Y-94110000D01*
X130051117Y-94121132D01*
X130016045Y-94132350D01*
X129978991Y-94121110D01*
X129835000Y-94106928D01*
X129635000Y-94106928D01*
X129491009Y-94121110D01*
X129410000Y-94145684D01*
X129328991Y-94121110D01*
X129185000Y-94106928D01*
X128985000Y-94106928D01*
X128841009Y-94121110D01*
X128803955Y-94132350D01*
X128768883Y-94121132D01*
X128666750Y-94110000D01*
X128508000Y-94268750D01*
X128508000Y-94286259D01*
X128463104Y-94323104D01*
X128435000Y-94357349D01*
X128406896Y-94323104D01*
X128362000Y-94286259D01*
X128362000Y-94268750D01*
X128203250Y-94110000D01*
X128101117Y-94121132D01*
X128066045Y-94132350D01*
X128028991Y-94121110D01*
X127885000Y-94106928D01*
X127685000Y-94106928D01*
X127541009Y-94121110D01*
X127460000Y-94145684D01*
X127378991Y-94121110D01*
X127235000Y-94106928D01*
X127035000Y-94106928D01*
X126891009Y-94121110D01*
X126810000Y-94145684D01*
X126728991Y-94121110D01*
X126585000Y-94106928D01*
X126385000Y-94106928D01*
X126241009Y-94121110D01*
X126160000Y-94145684D01*
X126078991Y-94121110D01*
X125935000Y-94106928D01*
X125735000Y-94106928D01*
X125591009Y-94121110D01*
X125553955Y-94132350D01*
X125518883Y-94121132D01*
X125416750Y-94110000D01*
X125258000Y-94268750D01*
X125258000Y-94286259D01*
X125213104Y-94323104D01*
X125121316Y-94434949D01*
X125112000Y-94452378D01*
X125112000Y-94268750D01*
X124953250Y-94110000D01*
X124927000Y-94112861D01*
X124927000Y-93127000D01*
X130200001Y-93127000D01*
X130200001Y-94156751D01*
G37*
%TD.AperFunction*%
%TD*%
D19*
X129700000Y-91000000D03*
X130000000Y-84000000D03*
X125100000Y-84100000D03*
X130500000Y-99200000D03*
X121200000Y-95600000D03*
X128400000Y-94100000D03*
X129000000Y-99200000D03*
D20*
X122400000Y-88900000D03*
X123200000Y-84800000D03*
X131080000Y-79500000D03*
X128540000Y-79500000D03*
X126000000Y-79500000D03*
X131100000Y-101200000D03*
X128560000Y-101200000D03*
X126020000Y-101200000D03*
X123480000Y-101200000D03*
X120940000Y-101200000D03*
X118400000Y-101200000D03*
X118900000Y-88625000D03*
X118900000Y-81625000D03*
M02*
